<svg width="44.45mm" height="88.646mm" viewBox="0 0 17500000 34900000"  version="1.1" xmlns="http://www.w3.org/2000/svg" xmlns:xlink="http://www.w3.org/1999/xlink">
<desc>
Origin 0 0 Bound 0 0 17500000 34900000
</desc>
<g fill-rule="evenodd" fill="rgb(0, 0, 255)" stroke="black" stroke-width="1" transform="translate(0, 34900000) scale(1, -1) translate(0, 0)">
<path id="N" d="M 9143429.00 23928624.00 L 9146655.00 23904120.00 L 9750000.00 23904121.00 L 9788269.00 23888269.00 L 10638269.00 23038269.00 L 10654120.00 22999997.59 L 10654120.00 8022417.97 L 11122417.03 7554120.00 L 11624803.00 7554120.00 L 11624803.00 7775197.00 L 12175197.00 7775197.00 L 12175197.00 7224803.00 L 11624803.00 7224803.00 L 11624803.00 7445880.00 L 11100000.00 7445879.00 L 11061730.29 7461732.71 L 10561731.00 7961731.00 L 10545880.00 8000002.41 L 10545880.00 22977582.98 L 9727582.02 23795880.00 L 9146655.00 23795880.00 L 9143429.00 23771376.00 A 303787.51 303787.51 0 1 0 9143429.00 23928624.00  zM 11899999.60 7499999.89 m -178629.11 0 a 178629.11 178629.11 0 1 1 357258.23 0a 178629.11 178629.11 0 1 1 -357258.23 0M 8849999.24 23849999.93 m -204721.07 0 a 204721.07 204721.07 0 1 1 409442.13 0a 204721.07 204721.07 0 1 1 -409442.13 0"/>
<path id="N" d="M 9143429.00 24928624.00 L 9146655.00 24904120.00 L 10150000.00 24904121.00 L 10188269.00 24888269.00 L 11038269.00 24038269.00 L 11054120.00 23999997.59 L 11054120.00 17722417.92 L 11222417.08 17554120.00 L 11624803.00 17554120.00 L 11624803.00 17775197.00 L 12175197.00 17775197.00 L 12175197.00 17224803.00 L 11624803.00 17224803.00 L 11624803.00 17445880.00 L 11200000.00 17445879.00 L 11161730.29 17461732.71 L 10961731.00 17661731.00 L 10945880.00 17700002.41 L 10945880.00 23977582.98 L 10127582.02 24795880.00 L 9146655.00 24795880.00 L 9143429.00 24771376.00 A 303787.51 303787.51 0 1 0 9143429.00 24928624.00  zM 11899999.60 17499999.89 m -178629.11 0 a 178629.11 178629.11 0 1 1 357258.23 0a 178629.11 178629.11 0 1 1 -357258.23 0M 8849999.24 24849999.93 m -204721.07 0 a 204721.07 204721.07 0 1 1 409442.13 0a 204721.07 204721.07 0 1 1 -409442.13 0"/>
<path id="N" d="M 8849996.34 29849993.24 m -303787.51 0 a 303787.51 303787.51 0 1 1 607575.03 0a 303787.51 303787.51 0 1 1 -607575.03 0M 8849999.24 29849999.93 m -204721.07 0 a 204721.07 204721.07 0 1 1 409442.13 0a 204721.07 204721.07 0 1 1 -409442.13 0"/>
<path id="N" d="M 2849996.34 25849993.24 m -303787.51 0 a 303787.51 303787.51 0 1 1 607575.03 0a 303787.51 303787.51 0 1 1 -607575.03 0M 2849999.24 25849999.93 m -204721.07 0 a 204721.07 204721.07 0 1 1 409442.13 0a 204721.07 204721.07 0 1 1 -409442.13 0"/>
<path id="N" d="M 2849996.34 30849993.24 m -303787.51 0 a 303787.51 303787.51 0 1 1 607575.03 0a 303787.51 303787.51 0 1 1 -607575.03 0M 2849999.24 30849999.93 m -204721.07 0 a 204721.07 204721.07 0 1 1 409442.13 0a 204721.07 204721.07 0 1 1 -409442.13 0"/>
<path id="N" d="M 8849996.34 27849993.24 m -303787.51 0 a 303787.51 303787.51 0 1 1 607575.03 0a 303787.51 303787.51 0 1 1 -607575.03 0M 8849999.24 27849999.93 m -204721.07 0 a 204721.07 204721.07 0 1 1 409442.13 0a 204721.07 204721.07 0 1 1 -409442.13 0"/>
<path id="N" d="M 2849996.34 29849993.24 m -303787.51 0 a 303787.51 303787.51 0 1 1 607575.03 0a 303787.51 303787.51 0 1 1 -607575.03 0M 2849999.24 29849999.93 m -204721.07 0 a 204721.07 204721.07 0 1 1 409442.13 0a 204721.07 204721.07 0 1 1 -409442.13 0"/>
<path id="N" d="M 8849996.34 26849993.24 m -303787.51 0 a 303787.51 303787.51 0 1 1 607575.03 0a 303787.51 303787.51 0 1 1 -607575.03 0M 8849999.24 26849999.93 m -204721.07 0 a 204721.07 204721.07 0 1 1 409442.13 0a 204721.07 204721.07 0 1 1 -409442.13 0"/>
<path id="N" d="M 2849996.34 27849993.24 m -303787.51 0 a 303787.51 303787.51 0 1 1 607575.03 0a 303787.51 303787.51 0 1 1 -607575.03 0M 2849999.24 27849999.93 m -204721.07 0 a 204721.07 204721.07 0 1 1 409442.13 0a 204721.07 204721.07 0 1 1 -409442.13 0"/>
<path id="N" d="M 2849996.34 24849993.24 m -303787.51 0 a 303787.51 303787.51 0 1 1 607575.03 0a 303787.51 303787.51 0 1 1 -607575.03 0M 2849999.24 24849999.93 m -204721.07 0 a 204721.07 204721.07 0 1 1 409442.13 0a 204721.07 204721.07 0 1 1 -409442.13 0"/>
<path id="N" d="M 2849996.34 26849993.24 m -303787.51 0 a 303787.51 303787.51 0 1 1 607575.03 0a 303787.51 303787.51 0 1 1 -607575.03 0M 2849999.24 26849999.93 m -204721.07 0 a 204721.07 204721.07 0 1 1 409442.13 0a 204721.07 204721.07 0 1 1 -409442.13 0"/>
<path id="N" d="M 8849996.34 28849993.24 m -303787.51 0 a 303787.51 303787.51 0 1 1 607575.03 0a 303787.51 303787.51 0 1 1 -607575.03 0M 8849999.24 28849999.93 m -204721.07 0 a 204721.07 204721.07 0 1 1 409442.13 0a 204721.07 204721.07 0 1 1 -409442.13 0"/>
<path id="N" d="M 2849996.34 23849993.24 m -303787.51 0 a 303787.51 303787.51 0 1 1 607575.03 0a 303787.51 303787.51 0 1 1 -607575.03 0M 2849999.24 23849999.93 m -204721.07 0 a 204721.07 204721.07 0 1 1 409442.13 0a 204721.07 204721.07 0 1 1 -409442.13 0"/>
<path id="N" d="M 8849996.34 22849993.24 m -303787.51 0 a 303787.51 303787.51 0 1 1 607575.03 0a 303787.51 303787.51 0 1 1 -607575.03 0M 8849999.24 22849999.93 m -204721.07 0 a 204721.07 204721.07 0 1 1 409442.13 0a 204721.07 204721.07 0 1 1 -409442.13 0"/>
<path id="N" d="M 2849996.34 22849993.24 m -303787.51 0 a 303787.51 303787.51 0 1 1 607575.03 0a 303787.51 303787.51 0 1 1 -607575.03 0M 2849999.24 22849999.93 m -204721.07 0 a 204721.07 204721.07 0 1 1 409442.13 0a 204721.07 204721.07 0 1 1 -409442.13 0"/>
<path id="N" d="M 8849996.34 21849993.24 m -303787.51 0 a 303787.51 303787.51 0 1 1 607575.03 0a 303787.51 303787.51 0 1 1 -607575.03 0M 8849999.24 21849999.93 m -204721.07 0 a 204721.07 204721.07 0 1 1 409442.13 0a 204721.07 204721.07 0 1 1 -409442.13 0"/>
<path id="N" d="M 2849996.34 21849993.24 m -303787.51 0 a 303787.51 303787.51 0 1 1 607575.03 0a 303787.51 303787.51 0 1 1 -607575.03 0M 2849999.24 21849999.93 m -204721.07 0 a 204721.07 204721.07 0 1 1 409442.13 0a 204721.07 204721.07 0 1 1 -409442.13 0"/>
<path id="N" d="M 8849996.34 20849993.24 m -303787.51 0 a 303787.51 303787.51 0 1 1 607575.03 0a 303787.51 303787.51 0 1 1 -607575.03 0M 8849999.24 20849999.93 m -204721.07 0 a 204721.07 204721.07 0 1 1 409442.13 0a 204721.07 204721.07 0 1 1 -409442.13 0"/>
<path id="N" d="M 2849996.34 19849993.24 m -303787.51 0 a 303787.51 303787.51 0 1 1 607575.03 0a 303787.51 303787.51 0 1 1 -607575.03 0M 2849999.24 19849999.93 m -204721.07 0 a 204721.07 204721.07 0 1 1 409442.13 0a 204721.07 204721.07 0 1 1 -409442.13 0"/>
<path id="N" d="M 8849996.34 19849993.24 m -303787.51 0 a 303787.51 303787.51 0 1 1 607575.03 0a 303787.51 303787.51 0 1 1 -607575.03 0M 8849999.24 19849999.93 m -204721.07 0 a 204721.07 204721.07 0 1 1 409442.13 0a 204721.07 204721.07 0 1 1 -409442.13 0"/>
<path id="N" d="M 2849996.34 20849993.24 m -303787.51 0 a 303787.51 303787.51 0 1 1 607575.03 0a 303787.51 303787.51 0 1 1 -607575.03 0M 2849999.24 20849999.93 m -204721.07 0 a 204721.07 204721.07 0 1 1 409442.13 0a 204721.07 204721.07 0 1 1 -409442.13 0"/>
<path id="N" d="M 2849996.34 18849993.24 m -303787.51 0 a 303787.51 303787.51 0 1 1 607575.03 0a 303787.51 303787.51 0 1 1 -607575.03 0M 2849999.24 18849999.93 m -204721.07 0 a 204721.07 204721.07 0 1 1 409442.13 0a 204721.07 204721.07 0 1 1 -409442.13 0"/>
<path id="N" d="M 8849996.34 17849993.24 m -303787.51 0 a 303787.51 303787.51 0 1 1 607575.03 0a 303787.51 303787.51 0 1 1 -607575.03 0M 8849999.24 17849999.93 m -204721.07 0 a 204721.07 204721.07 0 1 1 409442.13 0a 204721.07 204721.07 0 1 1 -409442.13 0"/>
<path id="N" d="M 2849996.34 17849993.24 m -303787.51 0 a 303787.51 303787.51 0 1 1 607575.03 0a 303787.51 303787.51 0 1 1 -607575.03 0M 2849999.24 17849999.93 m -204721.07 0 a 204721.07 204721.07 0 1 1 409442.13 0a 204721.07 204721.07 0 1 1 -409442.13 0"/>
<path id="N" d="M 9151181.00 31548819.00 L 8548819.00 31548819.00 L 8548819.00 32151181.00 L 9151181.00 32151181.00 L 9151181.00 31548819.00  zM 8849999.24 31849999.93 m -204721.07 0 a 204721.07 204721.07 0 1 1 409442.13 0a 204721.07 204721.07 0 1 1 -409442.13 0"/>
<path id="N" d="M 3151181.00 31548819.00 L 2548819.00 31548819.00 L 2548819.00 32151181.00 L 3151181.00 32151181.00 L 3151181.00 31548819.00  zM 2849999.24 31849999.93 m -204721.07 0 a 204721.07 204721.07 0 1 1 409442.13 0a 204721.07 204721.07 0 1 1 -409442.13 0"/>
<path id="N" d="M 8849996.34 18849993.24 m -303787.51 0 a 303787.51 303787.51 0 1 1 607575.03 0a 303787.51 303787.51 0 1 1 -607575.03 0M 8849999.24 18849999.93 m -204721.07 0 a 204721.07 204721.07 0 1 1 409442.13 0a 204721.07 204721.07 0 1 1 -409442.13 0"/>
<path id="N" d="M 12175197.00 27224803.00 L 11624803.00 27224803.00 L 11624803.00 27445880.00 L 11222418.00 27445880.00 L 10804120.00 27027582.00 L 10804120.00 26150000.00 L 10788269.00 26111731.00 L 10488269.00 25811731.00 L 10449997.59 25795880.00 L 9146655.00 25795880.00 L 9143429.00 25771376.00 A 303787.51 303787.51 0 1 0 9143429.00 25928624.00 L 9146655.00 25904120.00 L 10427582.00 25904120.00 L 10695880.00 26172418.00 L 10695879.00 27050000.00 L 10711731.00 27088269.00 L 11161731.00 27538269.00 L 11200000.00 27554120.00 L 11624803.00 27554120.00 L 11624803.00 27775197.00 L 12175197.00 27775197.00 L 12175197.00 27224803.00  zM 8849999.24 25849999.93 m -204721.07 0 a 204721.07 204721.07 0 1 1 409442.13 0a 204721.07 204721.07 0 1 1 -409442.13 0M 11899999.60 27499999.89 m -178629.11 0 a 178629.11 178629.11 0 1 1 357258.23 0a 178629.11 178629.11 0 1 1 -357258.23 0"/>
<path id="N" d="M 17500000.00 0.00 L 0.00 0.00 L 0.00 35000000.00 L 17500000.00 35000000.00 L 17500000.00 0.00  zM 1250000.00 1250005.86 m -746086.82 0 a 746086.82 746086.82 0 1 1 1492173.64 0a 746086.82 746086.82 0 1 1 -1492173.64 0M 11849999.98 8875035.15 A 377245.77 377245.77 0 0 1 11524964.84 8549999.98 L 11629010.59 8549999.99 L 11631886.00 8571841.00 A 277581.82 277581.82 0 0 0 11828159.00 8768114.00 L 11849999.99 8770989.41 L 11849999.98 8875035.15  zM 11629010.59 8449999.99 L 11524964.85 8449999.98 A 377245.77 377245.77 0 0 1 11850000.02 8124964.84 L 11850000.01 8229010.59 L 11828159.00 8231886.00 A 277581.82 277581.82 0 0 0 11631886.00 8428159.00 L 11629010.59 8449999.99  zM 13849999.97 6190551.00 L 13831987.00 6190551.00 A 693905.80 693905.80 0 0 1 13209449.00 5568013.00 L 13209449.00 5549999.97 L 13311516.50 5549999.97 L 13317994.00 5615768.00 A 593404.85 593404.85 0 0 0 13784232.00 6082006.00 L 13849999.97 6088483.49 L 13849999.97 6190551.00  zM 12275035.16 8450000.02 L 12170989.41 8450000.01 L 12168114.00 8428159.00 A 277581.82 277581.82 0 0 0 11971841.00 8231886.00 L 11950000.01 8229010.59 L 11950000.02 8124964.85 A 377245.77 377245.77 0 0 1 12275035.16 8450000.02  zM 11899999.60 8499999.89 m -178629.11 0 a 178629.11 178629.11 0 1 1 357258.23 0a 178629.11 178629.11 0 1 1 -357258.23 0M 16250000.00 1250005.86 m -746086.82 0 a 746086.82 746086.82 0 1 1 1492173.64 0a 746086.82 746086.82 0 1 1 -1492173.64 0M 13311516.51 5449999.97 L 13209449.00 5449999.97 L 13209449.00 5431987.00 A 693905.80 693905.80 0 0 1 13831987.00 4809449.00 L 13850000.03 4809449.00 L 13850000.03 4911516.50 L 13784232.00 4917994.00 A 593404.85 593404.85 0 0 0 13317994.00 5384232.00 L 13311516.51 5449999.97  zM 14590551.00 5450000.03 L 14488483.50 5450000.03 L 14482006.00 5384232.00 A 593404.85 593404.85 0 0 0 14015768.00 4917994.00 L 13950000.03 4911516.51 L 13950000.03 4809449.00 L 13968013.00 4809449.00 A 693905.80 693905.80 0 0 1 14590551.00 5431987.00 L 14590551.00 5450000.03  zM 13900000.71 5499997.07 m -397100.93 0 a 397100.93 397100.93 0 1 1 794201.86 0a 397100.93 397100.93 0 1 1 -794201.86 0M 13968013.00 6190551.00 L 13949999.97 6190551.00 L 13949999.97 6088483.50 L 14015768.00 6082006.00 A 593404.85 593404.85 0 0 0 14482006.00 5615768.00 L 14488483.49 5550000.03 L 14590551.00 5550000.03 L 14590551.00 5568013.00 A 693905.80 693905.80 0 0 1 13968013.00 6190551.00  zM 11949999.98 8875035.16 L 11949999.99 8770989.41 L 11971841.00 8768114.00 A 277581.82 277581.82 0 0 0 12168114.00 8571841.00 L 12170989.41 8550000.01 L 12275035.15 8550000.02 A 377245.77 377245.77 0 0 1 11949999.98 8875035.16  zM 13849999.97 10190551.00 L 13831987.00 10190551.00 A 693905.80 693905.80 0 0 1 13209449.00 9568013.00 L 13209449.00 9549999.97 L 13311516.50 9549999.97 L 13317994.00 9615768.00 A 593404.85 593404.85 0 0 0 13784232.00 10082006.00 L 13849999.97 10088483.49 L 13849999.97 10190551.00  zM 13311516.51 9449999.97 L 13209449.00 9449999.97 L 13209449.00 9431987.00 A 693905.80 693905.80 0 0 1 13831987.00 8809449.00 L 13850000.03 8809449.00 L 13850000.03 8911516.50 L 13784232.00 8917994.00 A 593404.85 593404.85 0 0 0 13317994.00 9384232.00 L 13311516.51 9449999.97  zM 13900000.71 9499997.07 m -397100.93 0 a 397100.93 397100.93 0 1 1 794201.86 0a 397100.93 397100.93 0 1 1 -794201.86 0M 14590551.00 9450000.03 L 14488483.50 9450000.03 L 14482006.00 9384232.00 A 593404.85 593404.85 0 0 0 14015768.00 8917994.00 L 13950000.03 8911516.51 L 13950000.03 8809449.00 L 13968013.00 8809449.00 A 693905.80 693905.80 0 0 1 14590551.00 9431987.00 L 14590551.00 9450000.03  zM 13968013.00 10190551.00 L 13949999.97 10190551.00 L 13949999.97 10088483.50 L 14015768.00 10082006.00 A 593404.85 593404.85 0 0 0 14482006.00 9615768.00 L 14488483.49 9550000.03 L 14590551.00 9550000.03 L 14590551.00 9568013.00 A 693905.80 693905.80 0 0 1 13968013.00 10190551.00  zM 13311516.51 15449999.97 L 13209449.00 15449999.97 L 13209449.00 15431987.00 A 693905.80 693905.80 0 0 1 13831987.00 14809449.00 L 13850000.03 14809449.00 L 13850000.03 14911516.50 L 13784232.00 14917994.00 A 593404.85 593404.85 0 0 0 13317994.00 15384232.00 L 13311516.51 15449999.97  zM 13900000.71 15499997.07 m -397100.93 0 a 397100.93 397100.93 0 1 1 794201.86 0a 397100.93 397100.93 0 1 1 -794201.86 0M 14590551.00 15450000.03 L 14488483.50 15450000.03 L 14482006.00 15384232.00 A 593404.85 593404.85 0 0 0 14015768.00 14917994.00 L 13950000.03 14911516.51 L 13950000.03 14809449.00 L 13968013.00 14809449.00 A 693905.80 693905.80 0 0 1 14590551.00 15431987.00 L 14590551.00 15450000.03  zM 9224353.06 23697061.00 L 9686650.95 23697061.00 L 10447061.00 22936650.05 L 10447061.00 8000000.00 L 10458703.00 7941473.00 L 10491856.00 7891856.00 L 10991856.00 7391856.00 L 11041473.00 7358703.00 L 11100000.00 7347061.00 L 11524803.00 7347061.00 L 11524803.00 7124803.00 L 12275197.00 7124803.00 L 12275197.00 7875197.00 L 11524803.00 7875197.00 L 11524803.00 7652939.00 L 11163349.00 7652939.00 L 10752939.00 8063349.00 L 10752939.00 23000000.00 L 10741297.00 23058527.00 L 10708145.00 23108144.00 L 9858144.00 23958144.00 L 9808527.00 23991297.00 L 9750000.00 24002939.00 L 9224353.06 24002939.00 A 401048.06 401048.06 0 1 1 9224353.06 23697061.00  zM 13849999.97 16190551.00 L 13831987.00 16190551.00 A 693905.80 693905.80 0 0 1 13209449.00 15568013.00 L 13209449.00 15549999.97 L 13311516.50 15549999.97 L 13317994.00 15615768.00 A 593404.85 593404.85 0 0 0 13784232.00 16082006.00 L 13849999.97 16088483.49 L 13849999.97 16190551.00  zM 2850000.00 18850003.92 m -404638.95 0 a 404638.95 404638.95 0 1 1 809277.91 0a 404638.95 404638.95 0 1 1 -809277.91 0M 2850000.00 19850003.92 m -404638.95 0 a 404638.95 404638.95 0 1 1 809277.91 0a 404638.95 404638.95 0 1 1 -809277.91 0M 2850000.00 20850003.92 m -404638.95 0 a 404638.95 404638.95 0 1 1 809277.91 0a 404638.95 404638.95 0 1 1 -809277.91 0M 2850000.00 17850003.92 m -404638.95 0 a 404638.95 404638.95 0 1 1 809277.91 0a 404638.95 404638.95 0 1 1 -809277.91 0M 2850000.00 21850003.92 m -404638.95 0 a 404638.95 404638.95 0 1 1 809277.91 0a 404638.95 404638.95 0 1 1 -809277.91 0M 8850000.00 18850003.92 m -404638.95 0 a 404638.95 404638.95 0 1 1 809277.91 0a 404638.95 404638.95 0 1 1 -809277.91 0M 8850000.00 17850003.92 m -404638.95 0 a 404638.95 404638.95 0 1 1 809277.91 0a 404638.95 404638.95 0 1 1 -809277.91 0M 8850000.00 19850003.92 m -404638.95 0 a 404638.95 404638.95 0 1 1 809277.91 0a 404638.95 404638.95 0 1 1 -809277.91 0M 8850000.00 20850003.92 m -404638.95 0 a 404638.95 404638.95 0 1 1 809277.91 0a 404638.95 404638.95 0 1 1 -809277.91 0M 9224353.06 24697061.00 L 10086650.95 24697061.00 L 10847061.00 23936650.05 L 10847061.00 17700000.00 L 10858703.00 17641473.00 L 10891856.00 17591856.00 L 11091856.00 17391856.00 L 11141473.00 17358703.00 L 11200000.00 17347061.00 L 11524803.00 17347061.00 L 11524803.00 17124803.00 L 12275197.00 17124803.00 L 12275197.00 17875197.00 L 11524803.00 17875197.00 L 11524803.00 17652939.00 L 11263349.00 17652939.00 L 11152939.00 17763349.00 L 11152939.00 24000000.00 L 11141297.00 24058527.00 L 11108145.00 24108144.00 L 10258144.00 24958144.00 L 10208527.00 24991297.00 L 10150000.00 25002939.00 L 9224353.06 25002939.00 A 401048.06 401048.06 0 1 1 9224353.06 24697061.00  zM 8850000.00 21850003.92 m -404638.95 0 a 404638.95 404638.95 0 1 1 809277.91 0a 404638.95 404638.95 0 1 1 -809277.91 0M 11629010.59 18449999.99 L 11524964.85 18449999.98 A 377245.77 377245.77 0 0 1 11850000.02 18124964.84 L 11850000.01 18229010.59 L 11828159.00 18231886.00 A 277581.82 277581.82 0 0 0 11631886.00 18428159.00 L 11629010.59 18449999.99  zM 12275035.16 18450000.02 L 12170989.41 18450000.01 L 12168114.00 18428159.00 A 277581.82 277581.82 0 0 0 11971841.00 18231886.00 L 11950000.01 18229010.59 L 11950000.02 18124964.85 A 377245.77 377245.77 0 0 1 12275035.16 18450000.02  zM 13968013.00 16190551.00 L 13949999.97 16190551.00 L 13949999.97 16088483.50 L 14015768.00 16082006.00 A 593404.85 593404.85 0 0 0 14482006.00 15615768.00 L 14488483.49 15550000.03 L 14590551.00 15550000.03 L 14590551.00 15568013.00 A 693905.80 693905.80 0 0 1 13968013.00 16190551.00  zM 11849999.98 18875035.15 A 377245.77 377245.77 0 0 1 11524964.84 18549999.98 L 11629010.59 18549999.99 L 11631886.00 18571841.00 A 277581.82 277581.82 0 0 0 11828159.00 18768114.00 L 11849999.99 18770989.41 L 11849999.98 18875035.15  zM 11899999.60 18499999.89 m -178629.11 0 a 178629.11 178629.11 0 1 1 357258.23 0a 178629.11 178629.11 0 1 1 -357258.23 0M 11949999.98 18875035.16 L 11949999.99 18770989.41 L 11971841.00 18768114.00 A 277581.82 277581.82 0 0 0 12168114.00 18571841.00 L 12170989.41 18550000.01 L 12275035.15 18550000.02 A 377245.77 377245.77 0 0 1 11949999.98 18875035.16  zM 13311516.51 19449999.97 L 13209449.00 19449999.97 L 13209449.00 19431987.00 A 693905.80 693905.80 0 0 1 13831987.00 18809449.00 L 13850000.03 18809449.00 L 13850000.03 18911516.50 L 13784232.00 18917994.00 A 593404.85 593404.85 0 0 0 13317994.00 19384232.00 L 13311516.51 19449999.97  zM 13900000.71 19499997.07 m -397100.93 0 a 397100.93 397100.93 0 1 1 794201.86 0a 397100.93 397100.93 0 1 1 -794201.86 0M 13849999.97 20190551.00 L 13831987.00 20190551.00 A 693905.80 693905.80 0 0 1 13209449.00 19568013.00 L 13209449.00 19549999.97 L 13311516.50 19549999.97 L 13317994.00 19615768.00 A 593404.85 593404.85 0 0 0 13784232.00 20082006.00 L 13849999.97 20088483.49 L 13849999.97 20190551.00  zM 14590551.00 19450000.03 L 14488483.50 19450000.03 L 14482006.00 19384232.00 A 593404.85 593404.85 0 0 0 14015768.00 18917994.00 L 13950000.03 18911516.51 L 13950000.03 18809449.00 L 13968013.00 18809449.00 A 693905.80 693905.80 0 0 1 14590551.00 19431987.00 L 14590551.00 19450000.03  zM 13968013.00 20190551.00 L 13949999.97 20190551.00 L 13949999.97 20088483.50 L 14015768.00 20082006.00 A 593404.85 593404.85 0 0 0 14482006.00 19615768.00 L 14488483.49 19550000.03 L 14590551.00 19550000.03 L 14590551.00 19568013.00 A 693905.80 693905.80 0 0 1 13968013.00 20190551.00  zM 2850000.00 22850003.92 m -404638.95 0 a 404638.95 404638.95 0 1 1 809277.91 0a 404638.95 404638.95 0 1 1 -809277.91 0M 2850000.00 23850003.92 m -404638.95 0 a 404638.95 404638.95 0 1 1 809277.91 0a 404638.95 404638.95 0 1 1 -809277.91 0M 2850000.00 24850003.92 m -404638.95 0 a 404638.95 404638.95 0 1 1 809277.91 0a 404638.95 404638.95 0 1 1 -809277.91 0M 2850000.00 25850003.92 m -404638.95 0 a 404638.95 404638.95 0 1 1 809277.91 0a 404638.95 404638.95 0 1 1 -809277.91 0M 2850000.00 26850003.92 m -404638.95 0 a 404638.95 404638.95 0 1 1 809277.91 0a 404638.95 404638.95 0 1 1 -809277.91 0M 2552802.60 28800000.00 L 2448819.00 28800000.00 A 399659.32 399659.32 0 0 1 2603669.00 28528975.00 L 2695150.00 28476159.00 L 2800000.00 28448819.00 L 2800000.00 28552802.60 L 2771376.00 28556571.00 A 303787.51 303787.51 0 0 0 2556571.00 28771376.00 L 2552802.60 28800000.00  zM 2850000.00 27850003.92 m -404638.95 0 a 404638.95 404638.95 0 1 1 809277.91 0a 404638.95 404638.95 0 1 1 -809277.91 0M 3251181.00 28800000.00 L 3147197.40 28800000.00 L 3143429.00 28771376.00 A 303787.51 303787.51 0 0 0 2928624.00 28556571.00 L 2900000.00 28552802.60 L 2900000.00 28448819.00 A 399659.32 399659.32 0 0 1 3171025.00 28603669.00 L 3223841.00 28695150.00 L 3251181.00 28797183.00 L 3251181.00 28800000.00  zM 2849999.24 28849999.93 m -204721.07 0 a 204721.07 204721.07 0 1 1 409442.13 0a 204721.07 204721.07 0 1 1 -409442.13 0M 8850000.00 26850003.92 m -404638.95 0 a 404638.95 404638.95 0 1 1 809277.91 0a 404638.95 404638.95 0 1 1 -809277.91 0M 8850000.00 28850003.92 m -404638.95 0 a 404638.95 404638.95 0 1 1 809277.91 0a 404638.95 404638.95 0 1 1 -809277.91 0M 2800000.00 29251181.00 A 399659.32 399659.32 0 0 1 2528975.00 29096331.00 L 2476159.00 29004850.00 L 2448819.00 28900000.00 L 2552802.60 28900000.00 L 2556571.00 28928624.00 A 303787.51 303787.51 0 0 0 2771376.00 29143429.00 L 2800000.00 29147197.40 L 2800000.00 29251181.00  zM 2900000.00 29251181.00 L 2900000.00 29147197.40 L 2928624.00 29143429.00 A 303787.51 303787.51 0 0 0 3143429.00 28928624.00 L 3147197.40 28900000.00 L 3251181.00 28900000.00 A 399659.32 399659.32 0 0 1 3096331.00 29171025.00 L 3004850.00 29223841.00 L 2900000.00 29251181.00  zM 2850000.00 29850003.92 m -404638.95 0 a 404638.95 404638.95 0 1 1 809277.91 0a 404638.95 404638.95 0 1 1 -809277.91 0M 2850000.00 30850003.92 m -404638.95 0 a 404638.95 404638.95 0 1 1 809277.91 0a 404638.95 404638.95 0 1 1 -809277.91 0M 3251181.00 32251181.00 L 2448819.00 32251181.00 L 2448819.00 31448819.00 L 3251181.00 31448819.00 L 3251181.00 32251181.00  zM 1250000.00 33750005.86 m -746086.82 0 a 746086.82 746086.82 0 1 1 1492173.64 0a 746086.82 746086.82 0 1 1 -1492173.64 0M 8850000.00 29850003.92 m -404638.95 0 a 404638.95 404638.95 0 1 1 809277.91 0a 404638.95 404638.95 0 1 1 -809277.91 0M 8552802.60 30800000.00 L 8448819.00 30800000.00 A 399659.32 399659.32 0 0 1 8603669.00 30528975.00 L 8695150.00 30476159.00 L 8800000.00 30448819.00 L 8800000.00 30552802.60 L 8771376.00 30556571.00 A 303787.51 303787.51 0 0 0 8556571.00 30771376.00 L 8552802.60 30800000.00  zM 8849999.24 30849999.93 m -204721.07 0 a 204721.07 204721.07 0 1 1 409442.13 0a 204721.07 204721.07 0 1 1 -409442.13 0M 8800000.00 31251181.00 A 399659.32 399659.32 0 0 1 8528975.00 31096331.00 L 8476159.00 31004850.00 L 8448819.00 30900000.00 L 8552802.60 30900000.00 L 8556571.00 30928624.00 A 303787.51 303787.51 0 0 0 8771376.00 31143429.00 L 8800000.00 31147197.40 L 8800000.00 31251181.00  zM 9251181.00 32251181.00 L 8448819.00 32251181.00 L 8448819.00 31448819.00 L 9251181.00 31448819.00 L 9251181.00 32251181.00  zM 8850000.00 22850003.92 m -404638.95 0 a 404638.95 404638.95 0 1 1 809277.91 0a 404638.95 404638.95 0 1 1 -809277.91 0M 13849999.97 26190551.00 L 13831987.00 26190551.00 A 693905.80 693905.80 0 0 1 13209449.00 25568013.00 L 13209449.00 25549999.97 L 13311516.50 25549999.97 L 13317994.00 25615768.00 A 593404.85 593404.85 0 0 0 13784232.00 26082006.00 L 13849999.97 26088483.49 L 13849999.97 26190551.00  zM 13311516.51 25449999.97 L 13209449.00 25449999.97 L 13209449.00 25431987.00 A 693905.80 693905.80 0 0 1 13831987.00 24809449.00 L 13850000.03 24809449.00 L 13850000.03 24911516.50 L 13784232.00 24917994.00 A 593404.85 593404.85 0 0 0 13317994.00 25384232.00 L 13311516.51 25449999.97  zM 13900000.71 25499997.07 m -397100.93 0 a 397100.93 397100.93 0 1 1 794201.86 0a 397100.93 397100.93 0 1 1 -794201.86 0M 14590551.00 25450000.03 L 14488483.50 25450000.03 L 14482006.00 25384232.00 A 593404.85 593404.85 0 0 0 14015768.00 24917994.00 L 13950000.03 24911516.51 L 13950000.03 24809449.00 L 13968013.00 24809449.00 A 693905.80 693905.80 0 0 1 14590551.00 25431987.00 L 14590551.00 25450000.03  zM 13968013.00 26190551.00 L 13949999.97 26190551.00 L 13949999.97 26088483.50 L 14015768.00 26082006.00 A 593404.85 593404.85 0 0 0 14482006.00 25615768.00 L 14488483.49 25550000.03 L 14590551.00 25550000.03 L 14590551.00 25568013.00 A 693905.80 693905.80 0 0 1 13968013.00 26190551.00  zM 8850000.00 27850003.92 m -404638.95 0 a 404638.95 404638.95 0 1 1 809277.91 0a 404638.95 404638.95 0 1 1 -809277.91 0M 12275197.00 27875197.00 L 11524803.00 27875197.00 L 11524803.00 27652939.00 L 11200000.00 27652939.00 L 11141473.00 27641297.00 L 11091856.00 27608144.00 L 10641856.00 27158144.00 L 10608703.00 27108527.00 L 10597061.00 27050000.00 L 10597061.00 26213349.00 L 10386651.00 26002939.00 L 9224353.06 26002939.00 A 401048.06 401048.06 0 1 1 9171025.00 25603669.00 L 9224353.06 25697061.00 L 10450000.00 25697061.00 L 10508527.00 25708703.00 L 10558144.00 25741856.00 L 10858144.00 26041856.00 L 10891297.00 26091473.00 L 10902939.00 26150000.00 L 10902939.00 26986651.00 L 11263349.00 27347061.00 L 11524803.00 27347061.00 L 11524803.00 27124803.00 L 12275197.00 27124803.00 L 12275197.00 27875197.00  zM 11629010.59 28449999.99 L 11524964.85 28449999.98 A 377245.77 377245.77 0 0 1 11850000.02 28124964.84 L 11850000.01 28229010.59 L 11828159.00 28231886.00 A 277581.82 277581.82 0 0 0 11631886.00 28428159.00 L 11629010.59 28449999.99  zM 11899999.60 28499999.89 m -178629.11 0 a 178629.11 178629.11 0 1 1 357258.23 0a 178629.11 178629.11 0 1 1 -357258.23 0M 12275035.16 28450000.02 L 12170989.41 28450000.01 L 12168114.00 28428159.00 A 277581.82 277581.82 0 0 0 11971841.00 28231886.00 L 11950000.01 28229010.59 L 11950000.02 28124964.85 A 377245.77 377245.77 0 0 1 12275035.16 28450000.02  zM 9251181.00 30800000.00 L 9147197.40 30800000.00 L 9143429.00 30771376.00 A 303787.51 303787.51 0 0 0 8928624.00 30556571.00 L 8900000.00 30552802.60 L 8900000.00 30448819.00 A 399659.32 399659.32 0 0 1 9171025.00 30603669.00 L 9223841.00 30695150.00 L 9251181.00 30797183.00 L 9251181.00 30800000.00  zM 8900000.00 31251181.00 L 8900000.00 31147197.40 L 8928624.00 31143429.00 A 303787.51 303787.51 0 0 0 9143429.00 30928624.00 L 9147197.40 30900000.00 L 9251181.00 30900000.00 A 399659.32 399659.32 0 0 1 9096331.00 31171025.00 L 9004850.00 31223841.00 L 8900000.00 31251181.00  zM 11849999.98 28875035.15 A 377245.77 377245.77 0 0 1 11524964.84 28549999.98 L 11629010.59 28549999.99 L 11631886.00 28571841.00 A 277581.82 277581.82 0 0 0 11828159.00 28768114.00 L 11849999.99 28770989.41 L 11849999.98 28875035.15  zM 11949999.98 28875035.16 L 11949999.99 28770989.41 L 11971841.00 28768114.00 A 277581.82 277581.82 0 0 0 12168114.00 28571841.00 L 12170989.41 28550000.01 L 12275035.15 28550000.02 A 377245.77 377245.77 0 0 1 11949999.98 28875035.16  zM 13849999.97 30190551.00 L 13831987.00 30190551.00 A 693905.80 693905.80 0 0 1 13209449.00 29568013.00 L 13209449.00 29549999.97 L 13311516.50 29549999.97 L 13317994.00 29615768.00 A 593404.85 593404.85 0 0 0 13784232.00 30082006.00 L 13849999.97 30088483.49 L 13849999.97 30190551.00  zM 13311516.51 29449999.97 L 13209449.00 29449999.97 L 13209449.00 29431987.00 A 693905.80 693905.80 0 0 1 13831987.00 28809449.00 L 13850000.03 28809449.00 L 13850000.03 28911516.50 L 13784232.00 28917994.00 A 593404.85 593404.85 0 0 0 13317994.00 29384232.00 L 13311516.51 29449999.97  zM 13900000.71 29499997.07 m -397100.93 0 a 397100.93 397100.93 0 1 1 794201.86 0a 397100.93 397100.93 0 1 1 -794201.86 0M 14590551.00 29450000.03 L 14488483.50 29450000.03 L 14482006.00 29384232.00 A 593404.85 593404.85 0 0 0 14015768.00 28917994.00 L 13950000.03 28911516.51 L 13950000.03 28809449.00 L 13968013.00 28809449.00 A 693905.80 693905.80 0 0 1 14590551.00 29431987.00 L 14590551.00 29450000.03  zM 13968013.00 30190551.00 L 13949999.97 30190551.00 L 13949999.97 30088483.50 L 14015768.00 30082006.00 A 593404.85 593404.85 0 0 0 14482006.00 29615768.00 L 14488483.49 29550000.03 L 14590551.00 29550000.03 L 14590551.00 29568013.00 A 693905.80 693905.80 0 0 1 13968013.00 30190551.00  zM 16250000.00 33750005.86 m -746086.82 0 a 746086.82 746086.82 0 1 1 1492173.64 0a 746086.82 746086.82 0 1 1 -1492173.64 0"/>
</g>
</svg>
