<svg width="53.975mm" height="107.95mm" viewBox="0 0 21250000 42500000"  version="1.1" xmlns="http://www.w3.org/2000/svg" xmlns:xlink="http://www.w3.org/1999/xlink">
<desc>
Origin 0 0 Bound 0 0 21250000 42500000
</desc>
<g fill-rule="evenodd" fill="rgb(0, 0, 255)" stroke="black" stroke-width="1" transform="translate(0, 42500000) scale(1, -1) translate(0, 0)">
<path id="N" d="M 9778624.00 34206571.00 L 9754120.00 34203345.00 L 9754120.00 8422418.98 L 10622418.02 7554120.00 L 15324803.00 7554120.00 L 15324803.00 7775197.00 L 15875197.00 7775197.00 L 15875197.00 7224803.00 L 15324803.00 7224803.00 L 15324803.00 7445880.00 L 10600001.00 7445879.00 L 10561731.29 7461732.71 L 9661731.00 8361732.00 L 9645880.00 8400003.41 L 9645880.00 34203345.00 L 9621376.00 34206571.00 A 303787.51 303787.51 0 1 0 9778624.00 34206571.00  zM 15599999.60 7499999.89 m -178629.11 0 a 178629.11 178629.11 0 1 1 357258.23 0a 178629.11 178629.11 0 1 1 -357258.23 0M 9699999.24 34499999.93 m -204721.07 0 a 204721.07 204721.07 0 1 1 409442.13 0a 204721.07 204721.07 0 1 1 -409442.13 0"/>
<path id="N" d="M 10778624.00 34206571.00 L 10754120.00 34203345.00 L 10754120.00 18772418.00 L 11972418.00 17554120.00 L 15324803.00 17554120.00 L 15324803.00 17775197.00 L 15875197.00 17775197.00 L 15875197.00 17224803.00 L 15324803.00 17224803.00 L 15324803.00 17445880.00 L 11950000.00 17445879.00 L 11911731.00 17461731.00 L 10661731.00 18711731.00 L 10645880.00 18750002.41 L 10645880.00 34203345.00 L 10621376.00 34206571.00 A 303787.51 303787.51 0 1 0 10778624.00 34206571.00  zM 15599999.60 17499999.89 m -178629.11 0 a 178629.11 178629.11 0 1 1 357258.23 0a 178629.11 178629.11 0 1 1 -357258.23 0M 10699999.24 34499999.93 m -204721.07 0 a 204721.07 204721.07 0 1 1 409442.13 0a 204721.07 204721.07 0 1 1 -409442.13 0"/>
<path id="N" d="M 15699996.34 40499993.24 m -303787.51 0 a 303787.51 303787.51 0 1 1 607575.03 0a 303787.51 303787.51 0 1 1 -607575.03 0M 15699999.24 40499999.93 m -204721.07 0 a 204721.07 204721.07 0 1 1 409442.13 0a 204721.07 204721.07 0 1 1 -409442.13 0"/>
<path id="N" d="M 10699996.34 40499993.24 m -303787.51 0 a 303787.51 303787.51 0 1 1 607575.03 0a 303787.51 303787.51 0 1 1 -607575.03 0M 10699999.24 40499999.93 m -204721.07 0 a 204721.07 204721.07 0 1 1 409442.13 0a 204721.07 204721.07 0 1 1 -409442.13 0"/>
<path id="N" d="M 16699996.34 40499993.24 m -303787.51 0 a 303787.51 303787.51 0 1 1 607575.03 0a 303787.51 303787.51 0 1 1 -607575.03 0M 16699999.24 40499999.93 m -204721.07 0 a 204721.07 204721.07 0 1 1 409442.13 0a 204721.07 204721.07 0 1 1 -409442.13 0"/>
<path id="N" d="M 11699996.34 40499993.24 m -303787.51 0 a 303787.51 303787.51 0 1 1 607575.03 0a 303787.51 303787.51 0 1 1 -607575.03 0M 11699999.24 40499999.93 m -204721.07 0 a 204721.07 204721.07 0 1 1 409442.13 0a 204721.07 204721.07 0 1 1 -409442.13 0"/>
<path id="N" d="M 13699996.34 40499993.24 m -303787.51 0 a 303787.51 303787.51 0 1 1 607575.03 0a 303787.51 303787.51 0 1 1 -607575.03 0M 13699999.24 40499999.93 m -204721.07 0 a 204721.07 204721.07 0 1 1 409442.13 0a 204721.07 204721.07 0 1 1 -409442.13 0"/>
<path id="N" d="M 8699996.34 40499993.24 m -303787.51 0 a 303787.51 303787.51 0 1 1 607575.03 0a 303787.51 303787.51 0 1 1 -607575.03 0M 8699999.24 40499999.93 m -204721.07 0 a 204721.07 204721.07 0 1 1 409442.13 0a 204721.07 204721.07 0 1 1 -409442.13 0"/>
<path id="N" d="M 9699996.34 40499993.24 m -303787.51 0 a 303787.51 303787.51 0 1 1 607575.03 0a 303787.51 303787.51 0 1 1 -607575.03 0M 9699999.24 40499999.93 m -204721.07 0 a 204721.07 204721.07 0 1 1 409442.13 0a 204721.07 204721.07 0 1 1 -409442.13 0"/>
<path id="N" d="M 6699996.34 40499993.24 m -303787.51 0 a 303787.51 303787.51 0 1 1 607575.03 0a 303787.51 303787.51 0 1 1 -607575.03 0M 6699999.24 40499999.93 m -204721.07 0 a 204721.07 204721.07 0 1 1 409442.13 0a 204721.07 204721.07 0 1 1 -409442.13 0"/>
<path id="N" d="M 7699996.34 40499993.24 m -303787.51 0 a 303787.51 303787.51 0 1 1 607575.03 0a 303787.51 303787.51 0 1 1 -607575.03 0M 7699999.24 40499999.93 m -204721.07 0 a 204721.07 204721.07 0 1 1 409442.13 0a 204721.07 204721.07 0 1 1 -409442.13 0"/>
<path id="N" d="M 12699996.34 40499993.24 m -303787.51 0 a 303787.51 303787.51 0 1 1 607575.03 0a 303787.51 303787.51 0 1 1 -607575.03 0M 12699999.24 40499999.93 m -204721.07 0 a 204721.07 204721.07 0 1 1 409442.13 0a 204721.07 204721.07 0 1 1 -409442.13 0"/>
<path id="N" d="M 4699996.34 40499993.24 m -303787.51 0 a 303787.51 303787.51 0 1 1 607575.03 0a 303787.51 303787.51 0 1 1 -607575.03 0M 4699999.24 40499999.93 m -204721.07 0 a 204721.07 204721.07 0 1 1 409442.13 0a 204721.07 204721.07 0 1 1 -409442.13 0"/>
<path id="N" d="M 3699996.34 40499993.24 m -303787.51 0 a 303787.51 303787.51 0 1 1 607575.03 0a 303787.51 303787.51 0 1 1 -607575.03 0M 3699999.24 40499999.93 m -204721.07 0 a 204721.07 204721.07 0 1 1 409442.13 0a 204721.07 204721.07 0 1 1 -409442.13 0"/>
<path id="N" d="M 12699996.34 34499993.24 m -303787.51 0 a 303787.51 303787.51 0 1 1 607575.03 0a 303787.51 303787.51 0 1 1 -607575.03 0M 12699999.24 34499999.93 m -204721.07 0 a 204721.07 204721.07 0 1 1 409442.13 0a 204721.07 204721.07 0 1 1 -409442.13 0"/>
<path id="N" d="M 14699996.34 34499993.24 m -303787.51 0 a 303787.51 303787.51 0 1 1 607575.03 0a 303787.51 303787.51 0 1 1 -607575.03 0M 14699999.24 34499999.93 m -204721.07 0 a 204721.07 204721.07 0 1 1 409442.13 0a 204721.07 204721.07 0 1 1 -409442.13 0"/>
<path id="N" d="M 13699996.34 34499993.24 m -303787.51 0 a 303787.51 303787.51 0 1 1 607575.03 0a 303787.51 303787.51 0 1 1 -607575.03 0M 13699999.24 34499999.93 m -204721.07 0 a 204721.07 204721.07 0 1 1 409442.13 0a 204721.07 204721.07 0 1 1 -409442.13 0"/>
<path id="N" d="M 15699996.34 34499993.24 m -303787.51 0 a 303787.51 303787.51 0 1 1 607575.03 0a 303787.51 303787.51 0 1 1 -607575.03 0M 15699999.24 34499999.93 m -204721.07 0 a 204721.07 204721.07 0 1 1 409442.13 0a 204721.07 204721.07 0 1 1 -409442.13 0"/>
<path id="N" d="M 5699996.34 40499993.24 m -303787.51 0 a 303787.51 303787.51 0 1 1 607575.03 0a 303787.51 303787.51 0 1 1 -607575.03 0M 5699999.24 40499999.93 m -204721.07 0 a 204721.07 204721.07 0 1 1 409442.13 0a 204721.07 204721.07 0 1 1 -409442.13 0"/>
<path id="N" d="M 7699996.34 34499993.24 m -303787.51 0 a 303787.51 303787.51 0 1 1 607575.03 0a 303787.51 303787.51 0 1 1 -607575.03 0M 7699999.24 34499999.93 m -204721.07 0 a 204721.07 204721.07 0 1 1 409442.13 0a 204721.07 204721.07 0 1 1 -409442.13 0"/>
<path id="N" d="M 8699996.34 34499993.24 m -303787.51 0 a 303787.51 303787.51 0 1 1 607575.03 0a 303787.51 303787.51 0 1 1 -607575.03 0M 8699999.24 34499999.93 m -204721.07 0 a 204721.07 204721.07 0 1 1 409442.13 0a 204721.07 204721.07 0 1 1 -409442.13 0"/>
<path id="N" d="M 5699996.34 34499993.24 m -303787.51 0 a 303787.51 303787.51 0 1 1 607575.03 0a 303787.51 303787.51 0 1 1 -607575.03 0M 5699999.24 34499999.93 m -204721.07 0 a 204721.07 204721.07 0 1 1 409442.13 0a 204721.07 204721.07 0 1 1 -409442.13 0"/>
<path id="N" d="M 3699996.34 34499993.24 m -303787.51 0 a 303787.51 303787.51 0 1 1 607575.03 0a 303787.51 303787.51 0 1 1 -607575.03 0M 3699999.24 34499999.93 m -204721.07 0 a 204721.07 204721.07 0 1 1 409442.13 0a 204721.07 204721.07 0 1 1 -409442.13 0"/>
<path id="N" d="M 6699996.34 34499993.24 m -303787.51 0 a 303787.51 303787.51 0 1 1 607575.03 0a 303787.51 303787.51 0 1 1 -607575.03 0M 6699999.24 34499999.93 m -204721.07 0 a 204721.07 204721.07 0 1 1 409442.13 0a 204721.07 204721.07 0 1 1 -409442.13 0"/>
<path id="N" d="M 18001181.00 40198819.00 L 17398819.00 40198819.00 L 17398819.00 40801181.00 L 18001181.00 40801181.00 L 18001181.00 40198819.00  zM 17699999.24 40499999.93 m -204721.07 0 a 204721.07 204721.07 0 1 1 409442.13 0a 204721.07 204721.07 0 1 1 -409442.13 0"/>
<path id="N" d="M 18001181.00 34198819.00 L 17398819.00 34198819.00 L 17398819.00 34801181.00 L 18001181.00 34801181.00 L 18001181.00 34198819.00  zM 17699999.24 34499999.93 m -204721.07 0 a 204721.07 204721.07 0 1 1 409442.13 0a 204721.07 204721.07 0 1 1 -409442.13 0"/>
<path id="N" d="M 4699996.34 34499993.24 m -303787.51 0 a 303787.51 303787.51 0 1 1 607575.03 0a 303787.51 303787.51 0 1 1 -607575.03 0M 4699999.24 34499999.93 m -204721.07 0 a 204721.07 204721.07 0 1 1 409442.13 0a 204721.07 204721.07 0 1 1 -409442.13 0"/>
<path id="N" d="M 11778624.00 34206571.00 L 11754120.00 34203345.00 L 11754120.00 28222419.00 L 12422419.00 27554120.00 L 15324803.00 27554120.00 L 15324803.00 27775197.00 L 15875197.00 27775197.00 L 15875197.00 27224803.00 L 15324803.00 27224803.00 L 15324803.00 27445880.00 L 12400001.00 27445879.00 L 12361732.00 27461731.00 L 11661731.00 28161732.00 L 11645880.00 28200003.41 L 11645880.00 34203345.00 L 11621376.00 34206571.00 A 303787.51 303787.51 0 1 0 11778624.00 34206571.00  zM 15599999.60 27499999.89 m -178629.11 0 a 178629.11 178629.11 0 1 1 357258.23 0a 178629.11 178629.11 0 1 1 -357258.23 0M 11699999.24 34499999.93 m -204721.07 0 a 204721.07 204721.07 0 1 1 409442.13 0a 204721.07 204721.07 0 1 1 -409442.13 0"/>
<path id="N" d="M 21250000.00 0.00 L 0.00 0.00 L 0.00 42500000.00 L 21250000.00 42500000.00 L 21250000.00 0.00  zM 1250000.00 10000005.86 m -746086.82 0 a 746086.82 746086.82 0 1 1 1492173.64 0a 746086.82 746086.82 0 1 1 -1492173.64 0M 15549999.98 8875035.15 A 377245.77 377245.77 0 0 1 15224964.84 8549999.98 L 15329010.59 8549999.99 L 15331886.00 8571841.00 A 277581.82 277581.82 0 0 0 15528159.00 8768114.00 L 15549999.99 8770989.41 L 15549999.98 8875035.15  zM 15329010.59 8449999.99 L 15224964.85 8449999.98 A 377245.77 377245.77 0 0 1 15550000.02 8124964.84 L 15550000.01 8229010.59 L 15528159.00 8231886.00 A 277581.82 277581.82 0 0 0 15331886.00 8428159.00 L 15329010.59 8449999.99  zM 15599999.60 8499999.89 m -178629.11 0 a 178629.11 178629.11 0 1 1 357258.23 0a 178629.11 178629.11 0 1 1 -357258.23 0M 15975035.16 8450000.02 L 15870989.41 8450000.01 L 15868114.00 8428159.00 A 277581.82 277581.82 0 0 0 15671841.00 8231886.00 L 15650000.01 8229010.59 L 15650000.02 8124964.85 A 377245.77 377245.77 0 0 1 15975035.16 8450000.02  zM 15649999.98 8875035.16 L 15649999.99 8770989.41 L 15671841.00 8768114.00 A 277581.82 277581.82 0 0 0 15868114.00 8571841.00 L 15870989.41 8550000.01 L 15975035.15 8550000.02 A 377245.77 377245.77 0 0 1 15649999.98 8875035.16  zM 17011516.51 5449999.97 L 16909449.00 5449999.97 L 16909449.00 5431987.00 A 693905.80 693905.80 0 0 1 17531987.00 4809449.00 L 17550000.03 4809449.00 L 17550000.03 4911516.50 L 17484232.00 4917994.00 A 593404.85 593404.85 0 0 0 17017994.00 5384232.00 L 17011516.51 5449999.97  zM 17549999.97 6190551.00 L 17531987.00 6190551.00 A 693905.80 693905.80 0 0 1 16909449.00 5568013.00 L 16909449.00 5549999.97 L 17011516.50 5549999.97 L 17017994.00 5615768.00 A 593404.85 593404.85 0 0 0 17484232.00 6082006.00 L 17549999.97 6088483.49 L 17549999.97 6190551.00  zM 17011516.51 9449999.97 L 16909449.00 9449999.97 L 16909449.00 9431987.00 A 693905.80 693905.80 0 0 1 17531987.00 8809449.00 L 17550000.03 8809449.00 L 17550000.03 8911516.50 L 17484232.00 8917994.00 A 593404.85 593404.85 0 0 0 17017994.00 9384232.00 L 17011516.51 9449999.97  zM 17549999.97 10190551.00 L 17531987.00 10190551.00 A 693905.80 693905.80 0 0 1 16909449.00 9568013.00 L 16909449.00 9549999.97 L 17011516.50 9549999.97 L 17017994.00 9615768.00 A 593404.85 593404.85 0 0 0 17484232.00 10082006.00 L 17549999.97 10088483.49 L 17549999.97 10190551.00  zM 17549999.97 16190551.00 L 17531987.00 16190551.00 A 693905.80 693905.80 0 0 1 16909449.00 15568013.00 L 16909449.00 15549999.97 L 17011516.50 15549999.97 L 17017994.00 15615768.00 A 593404.85 593404.85 0 0 0 17484232.00 16082006.00 L 17549999.97 16088483.49 L 17549999.97 16190551.00  zM 20000000.00 1250005.86 m -746086.82 0 a 746086.82 746086.82 0 1 1 1492173.64 0a 746086.82 746086.82 0 1 1 -1492173.64 0M 18290551.00 5450000.03 L 18188483.50 5450000.03 L 18182006.00 5384232.00 A 593404.85 593404.85 0 0 0 17715768.00 4917994.00 L 17650000.03 4911516.51 L 17650000.03 4809449.00 L 17668013.00 4809449.00 A 693905.80 693905.80 0 0 1 18290551.00 5431987.00 L 18290551.00 5450000.03  zM 17600000.71 5499997.07 m -397100.93 0 a 397100.93 397100.93 0 1 1 794201.86 0a 397100.93 397100.93 0 1 1 -794201.86 0M 17668013.00 6190551.00 L 17649999.97 6190551.00 L 17649999.97 6088483.50 L 17715768.00 6082006.00 A 593404.85 593404.85 0 0 0 18182006.00 5615768.00 L 18188483.49 5550000.03 L 18290551.00 5550000.03 L 18290551.00 5568013.00 A 693905.80 693905.80 0 0 1 17668013.00 6190551.00  zM 18290551.00 9450000.03 L 18188483.50 9450000.03 L 18182006.00 9384232.00 A 593404.85 593404.85 0 0 0 17715768.00 8917994.00 L 17650000.03 8911516.51 L 17650000.03 8809449.00 L 17668013.00 8809449.00 A 693905.80 693905.80 0 0 1 18290551.00 9431987.00 L 18290551.00 9450000.03  zM 17600000.71 9499997.07 m -397100.93 0 a 397100.93 397100.93 0 1 1 794201.86 0a 397100.93 397100.93 0 1 1 -794201.86 0M 17668013.00 10190551.00 L 17649999.97 10190551.00 L 17649999.97 10088483.50 L 17715768.00 10082006.00 A 593404.85 593404.85 0 0 0 18182006.00 9615768.00 L 18188483.49 9550000.03 L 18290551.00 9550000.03 L 18290551.00 9568013.00 A 693905.80 693905.80 0 0 1 17668013.00 10190551.00  zM 17011516.51 15449999.97 L 16909449.00 15449999.97 L 16909449.00 15431987.00 A 693905.80 693905.80 0 0 1 17531987.00 14809449.00 L 17550000.03 14809449.00 L 17550000.03 14911516.50 L 17484232.00 14917994.00 A 593404.85 593404.85 0 0 0 17017994.00 15384232.00 L 17011516.51 15449999.97  zM 18290551.00 15450000.03 L 18188483.50 15450000.03 L 18182006.00 15384232.00 A 593404.85 593404.85 0 0 0 17715768.00 14917994.00 L 17650000.03 14911516.51 L 17650000.03 14809449.00 L 17668013.00 14809449.00 A 693905.80 693905.80 0 0 1 18290551.00 15431987.00 L 18290551.00 15450000.03  zM 17600000.71 15499997.07 m -397100.93 0 a 397100.93 397100.93 0 1 1 794201.86 0a 397100.93 397100.93 0 1 1 -794201.86 0M 17668013.00 16190551.00 L 17649999.97 16190551.00 L 17649999.97 16088483.50 L 17715768.00 16082006.00 A 593404.85 593404.85 0 0 0 18182006.00 15615768.00 L 18188483.49 15550000.03 L 18290551.00 15550000.03 L 18290551.00 15568013.00 A 693905.80 693905.80 0 0 1 17668013.00 16190551.00  zM 15329010.59 18449999.99 L 15224964.85 18449999.98 A 377245.77 377245.77 0 0 1 15550000.02 18124964.84 L 15550000.01 18229010.59 L 15528159.00 18231886.00 A 277581.82 277581.82 0 0 0 15331886.00 18428159.00 L 15329010.59 18449999.99  zM 15599999.60 18499999.89 m -178629.11 0 a 178629.11 178629.11 0 1 1 357258.23 0a 178629.11 178629.11 0 1 1 -357258.23 0M 15549999.98 18875035.15 A 377245.77 377245.77 0 0 1 15224964.84 18549999.98 L 15329010.59 18549999.99 L 15331886.00 18571841.00 A 277581.82 277581.82 0 0 0 15528159.00 18768114.00 L 15549999.99 18770989.41 L 15549999.98 18875035.15  zM 15975035.16 18450000.02 L 15870989.41 18450000.01 L 15868114.00 18428159.00 A 277581.82 277581.82 0 0 0 15671841.00 18231886.00 L 15650000.01 18229010.59 L 15650000.02 18124964.85 A 377245.77 377245.77 0 0 1 15975035.16 18450000.02  zM 15649999.98 18875035.16 L 15649999.99 18770989.41 L 15671841.00 18768114.00 A 277581.82 277581.82 0 0 0 15868114.00 18571841.00 L 15870989.41 18550000.01 L 15975035.15 18550000.02 A 377245.77 377245.77 0 0 1 15649999.98 18875035.16  zM 17011516.51 19449999.97 L 16909449.00 19449999.97 L 16909449.00 19431987.00 A 693905.80 693905.80 0 0 1 17531987.00 18809449.00 L 17550000.03 18809449.00 L 17550000.03 18911516.50 L 17484232.00 18917994.00 A 593404.85 593404.85 0 0 0 17017994.00 19384232.00 L 17011516.51 19449999.97  zM 17549999.97 20190551.00 L 17531987.00 20190551.00 A 693905.80 693905.80 0 0 1 16909449.00 19568013.00 L 16909449.00 19549999.97 L 17011516.50 19549999.97 L 17017994.00 19615768.00 A 593404.85 593404.85 0 0 0 17484232.00 20082006.00 L 17549999.97 20088483.49 L 17549999.97 20190551.00  zM 17600000.71 19499997.07 m -397100.93 0 a 397100.93 397100.93 0 1 1 794201.86 0a 397100.93 397100.93 0 1 1 -794201.86 0M 18290551.00 19450000.03 L 18188483.50 19450000.03 L 18182006.00 19384232.00 A 593404.85 593404.85 0 0 0 17715768.00 18917994.00 L 17650000.03 18911516.51 L 17650000.03 18809449.00 L 17668013.00 18809449.00 A 693905.80 693905.80 0 0 1 18290551.00 19431987.00 L 18290551.00 19450000.03  zM 17668013.00 20190551.00 L 17649999.97 20190551.00 L 17649999.97 20088483.50 L 17715768.00 20082006.00 A 593404.85 593404.85 0 0 0 18182006.00 19615768.00 L 18188483.49 19550000.03 L 18290551.00 19550000.03 L 18290551.00 19568013.00 A 693905.80 693905.80 0 0 1 17668013.00 20190551.00  zM 9547061.00 34125646.94 L 9547061.00 8400001.00 L 9558703.00 8341474.00 L 9591856.00 8291857.00 L 10491857.00 7391856.00 L 10541474.00 7358703.00 L 10600001.00 7347061.00 L 15224803.00 7347061.00 L 15224803.00 7124803.00 L 15975197.00 7124803.00 L 15975197.00 7875197.00 L 15224803.00 7875197.00 L 15224803.00 7652939.00 L 10663350.00 7652939.00 L 9852939.00 8463350.00 L 9852939.00 34125646.94 A 401048.06 401048.06 0 1 1 9547061.00 34125646.94  zM 17011516.51 25449999.97 L 16909449.00 25449999.97 L 16909449.00 25431987.00 A 693905.80 693905.80 0 0 1 17531987.00 24809449.00 L 17550000.03 24809449.00 L 17550000.03 24911516.50 L 17484232.00 24917994.00 A 593404.85 593404.85 0 0 0 17017994.00 25384232.00 L 17011516.51 25449999.97  zM 17600000.71 25499997.07 m -397100.93 0 a 397100.93 397100.93 0 1 1 794201.86 0a 397100.93 397100.93 0 1 1 -794201.86 0M 18290551.00 25450000.03 L 18188483.50 25450000.03 L 18182006.00 25384232.00 A 593404.85 593404.85 0 0 0 17715768.00 24917994.00 L 17650000.03 24911516.51 L 17650000.03 24809449.00 L 17668013.00 24809449.00 A 693905.80 693905.80 0 0 1 18290551.00 25431987.00 L 18290551.00 25450000.03  zM 17549999.97 26190551.00 L 17531987.00 26190551.00 A 693905.80 693905.80 0 0 1 16909449.00 25568013.00 L 16909449.00 25549999.97 L 17011516.50 25549999.97 L 17017994.00 25615768.00 A 593404.85 593404.85 0 0 0 17484232.00 26082006.00 L 17549999.97 26088483.49 L 17549999.97 26190551.00  zM 17668013.00 26190551.00 L 17649999.97 26190551.00 L 17649999.97 26088483.50 L 17715768.00 26082006.00 A 593404.85 593404.85 0 0 0 18182006.00 25615768.00 L 18188483.49 25550000.03 L 18290551.00 25550000.03 L 18290551.00 25568013.00 A 693905.80 693905.80 0 0 1 17668013.00 26190551.00  zM 10547061.00 34125646.94 L 10547061.00 18750000.00 L 10558703.00 18691473.00 L 10591856.00 18641856.00 L 11841856.00 17391856.00 L 11891473.00 17358703.00 L 11950000.00 17347061.00 L 15224803.00 17347061.00 L 15224803.00 17124803.00 L 15975197.00 17124803.00 L 15975197.00 17875197.00 L 15224803.00 17875197.00 L 15224803.00 17652939.00 L 12013349.00 17652939.00 L 10852939.00 18813349.00 L 10852939.00 34125646.94 A 401048.06 401048.06 0 1 1 10547061.00 34125646.94  zM 15329010.59 28449999.99 L 15224964.85 28449999.98 A 377245.77 377245.77 0 0 1 15550000.02 28124964.84 L 15550000.01 28229010.59 L 15528159.00 28231886.00 A 277581.82 277581.82 0 0 0 15331886.00 28428159.00 L 15329010.59 28449999.99  zM 15599999.60 28499999.89 m -178629.11 0 a 178629.11 178629.11 0 1 1 357258.23 0a 178629.11 178629.11 0 1 1 -357258.23 0M 15549999.98 28875035.15 A 377245.77 377245.77 0 0 1 15224964.84 28549999.98 L 15329010.59 28549999.99 L 15331886.00 28571841.00 A 277581.82 277581.82 0 0 0 15528159.00 28768114.00 L 15549999.99 28770989.41 L 15549999.98 28875035.15  zM 15975035.16 28450000.02 L 15870989.41 28450000.01 L 15868114.00 28428159.00 A 277581.82 277581.82 0 0 0 15671841.00 28231886.00 L 15650000.01 28229010.59 L 15650000.02 28124964.85 A 377245.77 377245.77 0 0 1 15975035.16 28450000.02  zM 15649999.98 28875035.16 L 15649999.99 28770989.41 L 15671841.00 28768114.00 A 277581.82 277581.82 0 0 0 15868114.00 28571841.00 L 15870989.41 28550000.01 L 15975035.15 28550000.02 A 377245.77 377245.77 0 0 1 15649999.98 28875035.16  zM 1250000.00 32500005.86 m -746086.82 0 a 746086.82 746086.82 0 1 1 1492173.64 0a 746086.82 746086.82 0 1 1 -1492173.64 0M 3700000.00 34500003.92 m -404638.95 0 a 404638.95 404638.95 0 1 1 809277.91 0a 404638.95 404638.95 0 1 1 -809277.91 0M 4700000.00 34500003.92 m -404638.95 0 a 404638.95 404638.95 0 1 1 809277.91 0a 404638.95 404638.95 0 1 1 -809277.91 0M 5700000.00 34500003.92 m -404638.95 0 a 404638.95 404638.95 0 1 1 809277.91 0a 404638.95 404638.95 0 1 1 -809277.91 0M 6700000.00 34500003.92 m -404638.95 0 a 404638.95 404638.95 0 1 1 809277.91 0a 404638.95 404638.95 0 1 1 -809277.91 0M 7700000.00 34500003.92 m -404638.95 0 a 404638.95 404638.95 0 1 1 809277.91 0a 404638.95 404638.95 0 1 1 -809277.91 0M 3700000.00 40500003.92 m -404638.95 0 a 404638.95 404638.95 0 1 1 809277.91 0a 404638.95 404638.95 0 1 1 -809277.91 0M 4700000.00 40500003.92 m -404638.95 0 a 404638.95 404638.95 0 1 1 809277.91 0a 404638.95 404638.95 0 1 1 -809277.91 0M 5700000.00 40500003.92 m -404638.95 0 a 404638.95 404638.95 0 1 1 809277.91 0a 404638.95 404638.95 0 1 1 -809277.91 0M 6700000.00 40500003.92 m -404638.95 0 a 404638.95 404638.95 0 1 1 809277.91 0a 404638.95 404638.95 0 1 1 -809277.91 0M 7700000.00 40500003.92 m -404638.95 0 a 404638.95 404638.95 0 1 1 809277.91 0a 404638.95 404638.95 0 1 1 -809277.91 0M 11547061.00 34125646.94 L 11547061.00 28200001.00 L 11558703.00 28141474.00 L 11591856.00 28091857.00 L 12291857.00 27391856.00 L 12341474.00 27358703.00 L 12400001.00 27347061.00 L 15224803.00 27347061.00 L 15224803.00 27124803.00 L 15975197.00 27124803.00 L 15975197.00 27875197.00 L 15224803.00 27875197.00 L 15224803.00 27652939.00 L 12463350.00 27652939.00 L 11852939.00 28263350.00 L 11852939.00 34125646.94 A 401048.06 401048.06 0 1 1 11547061.00 34125646.94  zM 13700000.00 34500003.92 m -404638.95 0 a 404638.95 404638.95 0 1 1 809277.91 0a 404638.95 404638.95 0 1 1 -809277.91 0M 12700000.00 34500003.92 m -404638.95 0 a 404638.95 404638.95 0 1 1 809277.91 0a 404638.95 404638.95 0 1 1 -809277.91 0M 8700000.00 34500003.92 m -404638.95 0 a 404638.95 404638.95 0 1 1 809277.91 0a 404638.95 404638.95 0 1 1 -809277.91 0M 8700000.00 40500003.92 m -404638.95 0 a 404638.95 404638.95 0 1 1 809277.91 0a 404638.95 404638.95 0 1 1 -809277.91 0M 10700000.00 40500003.92 m -404638.95 0 a 404638.95 404638.95 0 1 1 809277.91 0a 404638.95 404638.95 0 1 1 -809277.91 0M 9700000.00 40500003.92 m -404638.95 0 a 404638.95 404638.95 0 1 1 809277.91 0a 404638.95 404638.95 0 1 1 -809277.91 0M 11700000.00 40500003.92 m -404638.95 0 a 404638.95 404638.95 0 1 1 809277.91 0a 404638.95 404638.95 0 1 1 -809277.91 0M 12700000.00 40500003.92 m -404638.95 0 a 404638.95 404638.95 0 1 1 809277.91 0a 404638.95 404638.95 0 1 1 -809277.91 0M 13700000.00 40500003.92 m -404638.95 0 a 404638.95 404638.95 0 1 1 809277.91 0a 404638.95 404638.95 0 1 1 -809277.91 0M 14650000.00 40901181.00 A 399659.33 399659.33 0 0 1 14378975.00 40746331.00 L 14326159.00 40654850.00 L 14298819.00 40550000.00 L 14402802.60 40550000.00 L 14406571.00 40578624.00 A 303787.51 303787.51 0 0 0 14621376.00 40793429.00 L 14650000.00 40797197.40 L 14650000.00 40901181.00  zM 17011516.51 29449999.97 L 16909449.00 29449999.97 L 16909449.00 29431987.00 A 693905.80 693905.80 0 0 1 17531987.00 28809449.00 L 17550000.03 28809449.00 L 17550000.03 28911516.50 L 17484232.00 28917994.00 A 593404.85 593404.85 0 0 0 17017994.00 29384232.00 L 17011516.51 29449999.97  zM 17549999.97 30190551.00 L 17531987.00 30190551.00 A 693905.80 693905.80 0 0 1 16909449.00 29568013.00 L 16909449.00 29549999.97 L 17011516.50 29549999.97 L 17017994.00 29615768.00 A 593404.85 593404.85 0 0 0 17484232.00 30082006.00 L 17549999.97 30088483.49 L 17549999.97 30190551.00  zM 16402802.60 34450000.00 L 16298819.00 34450000.00 A 399659.33 399659.33 0 0 1 16453669.00 34178975.00 L 16545150.00 34126159.00 L 16650000.00 34098819.00 L 16650000.00 34202802.60 L 16621376.00 34206571.00 A 303787.51 303787.51 0 0 0 16406571.00 34421376.00 L 16402802.60 34450000.00  zM 14700000.00 34500003.92 m -404638.95 0 a 404638.95 404638.95 0 1 1 809277.91 0a 404638.95 404638.95 0 1 1 -809277.91 0M 16699999.24 34499999.93 m -204721.07 0 a 204721.07 204721.07 0 1 1 409442.13 0a 204721.07 204721.07 0 1 1 -409442.13 0M 17101181.00 34450000.00 L 16997197.40 34450000.00 L 16993429.00 34421376.00 A 303787.51 303787.51 0 0 0 16778624.00 34206571.00 L 16750000.00 34202802.60 L 16750000.00 34098819.00 A 399659.33 399659.33 0 0 1 17021025.00 34253669.00 L 17073841.00 34345150.00 L 17101181.00 34447183.00 L 17101181.00 34450000.00  zM 17600000.71 29499997.07 m -397100.93 0 a 397100.93 397100.93 0 1 1 794201.86 0a 397100.93 397100.93 0 1 1 -794201.86 0M 18290551.00 29450000.03 L 18188483.50 29450000.03 L 18182006.00 29384232.00 A 593404.85 593404.85 0 0 0 17715768.00 28917994.00 L 17650000.03 28911516.51 L 17650000.03 28809449.00 L 17668013.00 28809449.00 A 693905.80 693905.80 0 0 1 18290551.00 29431987.00 L 18290551.00 29450000.03  zM 17668013.00 30190551.00 L 17649999.97 30190551.00 L 17649999.97 30088483.50 L 17715768.00 30082006.00 A 593404.85 593404.85 0 0 0 18182006.00 29615768.00 L 18188483.49 29550000.03 L 18290551.00 29550000.03 L 18290551.00 29568013.00 A 693905.80 693905.80 0 0 1 17668013.00 30190551.00  zM 18101181.00 34901181.00 L 17298819.00 34901181.00 L 17298819.00 34098819.00 L 18101181.00 34098819.00 L 18101181.00 34901181.00  zM 20000000.00 32500005.86 m -746086.82 0 a 746086.82 746086.82 0 1 1 1492173.64 0a 746086.82 746086.82 0 1 1 -1492173.64 0M 15700000.00 34500003.92 m -404638.95 0 a 404638.95 404638.95 0 1 1 809277.91 0a 404638.95 404638.95 0 1 1 -809277.91 0M 16650000.00 34901181.00 A 399659.33 399659.33 0 0 1 16378975.00 34746331.00 L 16326159.00 34654850.00 L 16298819.00 34550000.00 L 16402802.60 34550000.00 L 16406571.00 34578624.00 A 303787.51 303787.51 0 0 0 16621376.00 34793429.00 L 16650000.00 34797197.40 L 16650000.00 34901181.00  zM 16750000.00 34901181.00 L 16750000.00 34797197.40 L 16778624.00 34793429.00 A 303787.51 303787.51 0 0 0 16993429.00 34578624.00 L 16997197.40 34550000.00 L 17101181.00 34550000.00 A 399659.33 399659.33 0 0 1 16946331.00 34821025.00 L 16854850.00 34873841.00 L 16750000.00 34901181.00  zM 14402802.60 40450000.00 L 14298819.00 40450000.00 A 399659.33 399659.33 0 0 1 14453669.00 40178975.00 L 14545150.00 40126159.00 L 14650000.00 40098819.00 L 14650000.00 40202802.60 L 14621376.00 40206571.00 A 303787.51 303787.51 0 0 0 14406571.00 40421376.00 L 14402802.60 40450000.00  zM 15101181.00 40450000.00 L 14997197.40 40450000.00 L 14993429.00 40421376.00 A 303787.51 303787.51 0 0 0 14778624.00 40206571.00 L 14750000.00 40202802.60 L 14750000.00 40098819.00 A 399659.33 399659.33 0 0 1 15021025.00 40253669.00 L 15073841.00 40345150.00 L 15101181.00 40447183.00 L 15101181.00 40450000.00  zM 14699999.24 40499999.93 m -204721.07 0 a 204721.07 204721.07 0 1 1 409442.13 0a 204721.07 204721.07 0 1 1 -409442.13 0M 14750000.00 40901181.00 L 14750000.00 40797197.40 L 14778624.00 40793429.00 A 303787.51 303787.51 0 0 0 14993429.00 40578624.00 L 14997197.40 40550000.00 L 15101181.00 40550000.00 A 399659.33 399659.33 0 0 1 14946331.00 40821025.00 L 14854850.00 40873841.00 L 14750000.00 40901181.00  zM 15700000.00 40500003.92 m -404638.95 0 a 404638.95 404638.95 0 1 1 809277.91 0a 404638.95 404638.95 0 1 1 -809277.91 0M 16700000.00 40500003.92 m -404638.95 0 a 404638.95 404638.95 0 1 1 809277.91 0a 404638.95 404638.95 0 1 1 -809277.91 0M 18101181.00 40901181.00 L 17298819.00 40901181.00 L 17298819.00 40098819.00 L 18101181.00 40098819.00 L 18101181.00 40901181.00  z"/>
</g>
</svg>
