<svg width="44.45mm" height="88.646mm" viewBox="0 0 17500000 34900000"  version="1.1" xmlns="http://www.w3.org/2000/svg" xmlns:xlink="http://www.w3.org/1999/xlink">
<desc>
Origin 0 0 Bound 0 0 17500000 34900000
</desc>
<g fill-rule="evenodd" fill="rgb(0, 0, 255)" stroke="black" stroke-width="1" transform="translate(0, 34900000) scale(1, -1) translate(0, 0)">
<path id="N" d="M 9193429.00 23478624.00 L 9196655.00 23454120.00 L 9900000.00 23454121.00 L 9938269.00 23438269.00 L 10638269.00 22738269.00 L 10654120.00 22700000.00 L 10654120.00 8022417.97 L 11122417.03 7554120.00 L 11624803.00 7554120.00 L 11624803.00 7775197.00 L 12175197.00 7775197.00 L 12175197.00 7224803.00 L 11624803.00 7224803.00 L 11624803.00 7445880.00 L 11100000.00 7445879.00 L 11061730.29 7461732.71 L 10561731.00 7961731.00 L 10545880.00 8000002.41 L 10545880.00 22677582.98 L 9877582.02 23345880.00 L 9196655.00 23345880.00 L 9193429.00 23321376.00 A 303787.51 303787.51 0 1 0 9193429.00 23478624.00  zM 11899999.60 7499999.89 m -178629.11 0 a 178629.11 178629.11 0 1 1 357258.23 0a 178629.11 178629.11 0 1 1 -357258.23 0M 8899999.24 23399999.93 m -204721.07 0 a 204721.07 204721.07 0 1 1 409442.13 0a 204721.07 204721.07 0 1 1 -409442.13 0"/>
<path id="N" d="M 9193429.00 24478624.00 L 9196655.00 24454120.00 L 10450000.00 24454121.00 L 10488269.00 24438269.00 L 11038269.00 23888269.00 L 11054120.00 23850000.00 L 11054120.00 17722417.92 L 11222417.08 17554120.00 L 11624803.00 17554120.00 L 11624803.00 17775197.00 L 12175197.00 17775197.00 L 12175197.00 17224803.00 L 11624803.00 17224803.00 L 11624803.00 17445880.00 L 11200000.00 17445879.00 L 11161730.29 17461732.71 L 10961731.00 17661731.00 L 10945880.00 17700002.41 L 10945880.00 23827582.97 L 10427582.03 24345880.00 L 9196655.00 24345880.00 L 9193429.00 24321376.00 A 303787.51 303787.51 0 1 0 9193429.00 24478624.00  zM 11899999.60 17499999.89 m -178629.11 0 a 178629.11 178629.11 0 1 1 357258.23 0a 178629.11 178629.11 0 1 1 -357258.23 0M 8899999.24 24399999.93 m -204721.07 0 a 204721.07 204721.07 0 1 1 409442.13 0a 204721.07 204721.07 0 1 1 -409442.13 0"/>
<path id="N" d="M 8899996.34 29399993.24 m -303787.51 0 a 303787.51 303787.51 0 1 1 607575.03 0a 303787.51 303787.51 0 1 1 -607575.03 0M 8899999.24 29399999.93 m -204721.07 0 a 204721.07 204721.07 0 1 1 409442.13 0a 204721.07 204721.07 0 1 1 -409442.13 0"/>
<path id="N" d="M 2899996.34 25399993.24 m -303787.51 0 a 303787.51 303787.51 0 1 1 607575.03 0a 303787.51 303787.51 0 1 1 -607575.03 0M 2899999.24 25399999.93 m -204721.07 0 a 204721.07 204721.07 0 1 1 409442.13 0a 204721.07 204721.07 0 1 1 -409442.13 0"/>
<path id="N" d="M 2899996.34 30399993.24 m -303787.51 0 a 303787.51 303787.51 0 1 1 607575.03 0a 303787.51 303787.51 0 1 1 -607575.03 0M 2899999.24 30399999.93 m -204721.07 0 a 204721.07 204721.07 0 1 1 409442.13 0a 204721.07 204721.07 0 1 1 -409442.13 0"/>
<path id="N" d="M 8899996.34 27399993.24 m -303787.51 0 a 303787.51 303787.51 0 1 1 607575.03 0a 303787.51 303787.51 0 1 1 -607575.03 0M 8899999.24 27399999.93 m -204721.07 0 a 204721.07 204721.07 0 1 1 409442.13 0a 204721.07 204721.07 0 1 1 -409442.13 0"/>
<path id="N" d="M 2899996.34 29399993.24 m -303787.51 0 a 303787.51 303787.51 0 1 1 607575.03 0a 303787.51 303787.51 0 1 1 -607575.03 0M 2899999.24 29399999.93 m -204721.07 0 a 204721.07 204721.07 0 1 1 409442.13 0a 204721.07 204721.07 0 1 1 -409442.13 0"/>
<path id="N" d="M 8899996.34 26399993.24 m -303787.51 0 a 303787.51 303787.51 0 1 1 607575.03 0a 303787.51 303787.51 0 1 1 -607575.03 0M 8899999.24 26399999.93 m -204721.07 0 a 204721.07 204721.07 0 1 1 409442.13 0a 204721.07 204721.07 0 1 1 -409442.13 0"/>
<path id="N" d="M 2899996.34 27399993.24 m -303787.51 0 a 303787.51 303787.51 0 1 1 607575.03 0a 303787.51 303787.51 0 1 1 -607575.03 0M 2899999.24 27399999.93 m -204721.07 0 a 204721.07 204721.07 0 1 1 409442.13 0a 204721.07 204721.07 0 1 1 -409442.13 0"/>
<path id="N" d="M 2899996.34 24399993.24 m -303787.51 0 a 303787.51 303787.51 0 1 1 607575.03 0a 303787.51 303787.51 0 1 1 -607575.03 0M 2899999.24 24399999.93 m -204721.07 0 a 204721.07 204721.07 0 1 1 409442.13 0a 204721.07 204721.07 0 1 1 -409442.13 0"/>
<path id="N" d="M 2899996.34 26399993.24 m -303787.51 0 a 303787.51 303787.51 0 1 1 607575.03 0a 303787.51 303787.51 0 1 1 -607575.03 0M 2899999.24 26399999.93 m -204721.07 0 a 204721.07 204721.07 0 1 1 409442.13 0a 204721.07 204721.07 0 1 1 -409442.13 0"/>
<path id="N" d="M 8899996.34 28399993.24 m -303787.51 0 a 303787.51 303787.51 0 1 1 607575.03 0a 303787.51 303787.51 0 1 1 -607575.03 0M 8899999.24 28399999.93 m -204721.07 0 a 204721.07 204721.07 0 1 1 409442.13 0a 204721.07 204721.07 0 1 1 -409442.13 0"/>
<path id="N" d="M 2899996.34 23399993.24 m -303787.51 0 a 303787.51 303787.51 0 1 1 607575.03 0a 303787.51 303787.51 0 1 1 -607575.03 0M 2899999.24 23399999.93 m -204721.07 0 a 204721.07 204721.07 0 1 1 409442.13 0a 204721.07 204721.07 0 1 1 -409442.13 0"/>
<path id="N" d="M 8899996.34 22399993.24 m -303787.51 0 a 303787.51 303787.51 0 1 1 607575.03 0a 303787.51 303787.51 0 1 1 -607575.03 0M 8899999.24 22399999.93 m -204721.07 0 a 204721.07 204721.07 0 1 1 409442.13 0a 204721.07 204721.07 0 1 1 -409442.13 0"/>
<path id="N" d="M 2899996.34 22399993.24 m -303787.51 0 a 303787.51 303787.51 0 1 1 607575.03 0a 303787.51 303787.51 0 1 1 -607575.03 0M 2899999.24 22399999.93 m -204721.07 0 a 204721.07 204721.07 0 1 1 409442.13 0a 204721.07 204721.07 0 1 1 -409442.13 0"/>
<path id="N" d="M 8899996.34 21399993.24 m -303787.51 0 a 303787.51 303787.51 0 1 1 607575.03 0a 303787.51 303787.51 0 1 1 -607575.03 0M 8899999.24 21399999.93 m -204721.07 0 a 204721.07 204721.07 0 1 1 409442.13 0a 204721.07 204721.07 0 1 1 -409442.13 0"/>
<path id="N" d="M 2899996.34 21399993.24 m -303787.51 0 a 303787.51 303787.51 0 1 1 607575.03 0a 303787.51 303787.51 0 1 1 -607575.03 0M 2899999.24 21399999.93 m -204721.07 0 a 204721.07 204721.07 0 1 1 409442.13 0a 204721.07 204721.07 0 1 1 -409442.13 0"/>
<path id="N" d="M 8899996.34 20399993.24 m -303787.51 0 a 303787.51 303787.51 0 1 1 607575.03 0a 303787.51 303787.51 0 1 1 -607575.03 0M 8899999.24 20399999.93 m -204721.07 0 a 204721.07 204721.07 0 1 1 409442.13 0a 204721.07 204721.07 0 1 1 -409442.13 0"/>
<path id="N" d="M 2899996.34 19399993.24 m -303787.51 0 a 303787.51 303787.51 0 1 1 607575.03 0a 303787.51 303787.51 0 1 1 -607575.03 0M 2899999.24 19399999.93 m -204721.07 0 a 204721.07 204721.07 0 1 1 409442.13 0a 204721.07 204721.07 0 1 1 -409442.13 0"/>
<path id="N" d="M 8899996.34 19399993.24 m -303787.51 0 a 303787.51 303787.51 0 1 1 607575.03 0a 303787.51 303787.51 0 1 1 -607575.03 0M 8899999.24 19399999.93 m -204721.07 0 a 204721.07 204721.07 0 1 1 409442.13 0a 204721.07 204721.07 0 1 1 -409442.13 0"/>
<path id="N" d="M 2899996.34 20399993.24 m -303787.51 0 a 303787.51 303787.51 0 1 1 607575.03 0a 303787.51 303787.51 0 1 1 -607575.03 0M 2899999.24 20399999.93 m -204721.07 0 a 204721.07 204721.07 0 1 1 409442.13 0a 204721.07 204721.07 0 1 1 -409442.13 0"/>
<path id="N" d="M 2899996.34 18399993.24 m -303787.51 0 a 303787.51 303787.51 0 1 1 607575.03 0a 303787.51 303787.51 0 1 1 -607575.03 0M 2899999.24 18399999.93 m -204721.07 0 a 204721.07 204721.07 0 1 1 409442.13 0a 204721.07 204721.07 0 1 1 -409442.13 0"/>
<path id="N" d="M 8899996.34 17399993.24 m -303787.51 0 a 303787.51 303787.51 0 1 1 607575.03 0a 303787.51 303787.51 0 1 1 -607575.03 0M 8899999.24 17399999.93 m -204721.07 0 a 204721.07 204721.07 0 1 1 409442.13 0a 204721.07 204721.07 0 1 1 -409442.13 0"/>
<path id="N" d="M 2899996.34 17399993.24 m -303787.51 0 a 303787.51 303787.51 0 1 1 607575.03 0a 303787.51 303787.51 0 1 1 -607575.03 0M 2899999.24 17399999.93 m -204721.07 0 a 204721.07 204721.07 0 1 1 409442.13 0a 204721.07 204721.07 0 1 1 -409442.13 0"/>
<path id="N" d="M 9201181.00 31098819.00 L 8598819.00 31098819.00 L 8598819.00 31701181.00 L 9201181.00 31701181.00 L 9201181.00 31098819.00  zM 8899999.24 31399999.93 m -204721.07 0 a 204721.07 204721.07 0 1 1 409442.13 0a 204721.07 204721.07 0 1 1 -409442.13 0"/>
<path id="N" d="M 3201181.00 31098819.00 L 2598819.00 31098819.00 L 2598819.00 31701181.00 L 3201181.00 31701181.00 L 3201181.00 31098819.00  zM 2899999.24 31399999.93 m -204721.07 0 a 204721.07 204721.07 0 1 1 409442.13 0a 204721.07 204721.07 0 1 1 -409442.13 0"/>
<path id="N" d="M 8899996.34 18399993.24 m -303787.51 0 a 303787.51 303787.51 0 1 1 607575.03 0a 303787.51 303787.51 0 1 1 -607575.03 0M 8899999.24 18399999.93 m -204721.07 0 a 204721.07 204721.07 0 1 1 409442.13 0a 204721.07 204721.07 0 1 1 -409442.13 0"/>
<path id="N" d="M 12175197.00 27224803.00 L 11624803.00 27224803.00 L 11624803.00 27445880.00 L 11222418.00 27445880.00 L 10804120.00 27027582.00 L 10804120.00 25800000.00 L 10788267.29 25761730.29 L 10388269.00 25361731.00 L 10349997.59 25345880.00 L 9196655.00 25345880.00 L 9193429.00 25321376.00 A 303787.51 303787.51 0 1 0 9193429.00 25478624.00 L 9196655.00 25454120.00 L 10327582.04 25454120.00 L 10695880.00 25822417.04 L 10695879.00 27050000.00 L 10711731.00 27088269.00 L 11161731.00 27538269.00 L 11200000.00 27554120.00 L 11624803.00 27554120.00 L 11624803.00 27775197.00 L 12175197.00 27775197.00 L 12175197.00 27224803.00  zM 8899999.24 25399999.93 m -204721.07 0 a 204721.07 204721.07 0 1 1 409442.13 0a 204721.07 204721.07 0 1 1 -409442.13 0M 11899999.60 27499999.89 m -178629.11 0 a 178629.11 178629.11 0 1 1 357258.23 0a 178629.11 178629.11 0 1 1 -357258.23 0"/>
<path id="N" d="M 17500000.00 0.00 L 0.00 0.00 L 0.00 35000000.00 L 17500000.00 35000000.00 L 17500000.00 0.00  zM 1250000.00 1250005.86 m -746086.82 0 a 746086.82 746086.82 0 1 1 1492173.64 0a 746086.82 746086.82 0 1 1 -1492173.64 0M 11849999.98 8875035.15 A 377245.77 377245.77 0 0 1 11524964.84 8549999.98 L 11629010.59 8549999.99 L 11631886.00 8571841.00 A 277581.82 277581.82 0 0 0 11828159.00 8768114.00 L 11849999.99 8770989.41 L 11849999.98 8875035.15  zM 11629010.59 8449999.99 L 11524964.85 8449999.98 A 377245.77 377245.77 0 0 1 11850000.02 8124964.84 L 11850000.01 8229010.59 L 11828159.00 8231886.00 A 277581.82 277581.82 0 0 0 11631886.00 8428159.00 L 11629010.59 8449999.99  zM 13849999.97 6190551.00 L 13831987.00 6190551.00 A 693905.80 693905.80 0 0 1 13209449.00 5568013.00 L 13209449.00 5549999.97 L 13311516.50 5549999.97 L 13317994.00 5615768.00 A 593404.85 593404.85 0 0 0 13784232.00 6082006.00 L 13849999.97 6088483.49 L 13849999.97 6190551.00  zM 12275035.16 8450000.02 L 12170989.41 8450000.01 L 12168114.00 8428159.00 A 277581.82 277581.82 0 0 0 11971841.00 8231886.00 L 11950000.01 8229010.59 L 11950000.02 8124964.85 A 377245.77 377245.77 0 0 1 12275035.16 8450000.02  zM 11899999.60 8499999.89 m -178629.11 0 a 178629.11 178629.11 0 1 1 357258.23 0a 178629.11 178629.11 0 1 1 -357258.23 0M 16250000.00 1250005.86 m -746086.82 0 a 746086.82 746086.82 0 1 1 1492173.64 0a 746086.82 746086.82 0 1 1 -1492173.64 0M 13311516.51 5449999.97 L 13209449.00 5449999.97 L 13209449.00 5431987.00 A 693905.80 693905.80 0 0 1 13831987.00 4809449.00 L 13850000.03 4809449.00 L 13850000.03 4911516.50 L 13784232.00 4917994.00 A 593404.85 593404.85 0 0 0 13317994.00 5384232.00 L 13311516.51 5449999.97  zM 14590551.00 5450000.03 L 14488483.50 5450000.03 L 14482006.00 5384232.00 A 593404.85 593404.85 0 0 0 14015768.00 4917994.00 L 13950000.03 4911516.51 L 13950000.03 4809449.00 L 13968013.00 4809449.00 A 693905.80 693905.80 0 0 1 14590551.00 5431987.00 L 14590551.00 5450000.03  zM 13900000.71 5499997.07 m -397100.93 0 a 397100.93 397100.93 0 1 1 794201.86 0a 397100.93 397100.93 0 1 1 -794201.86 0M 13968013.00 6190551.00 L 13949999.97 6190551.00 L 13949999.97 6088483.50 L 14015768.00 6082006.00 A 593404.85 593404.85 0 0 0 14482006.00 5615768.00 L 14488483.49 5550000.03 L 14590551.00 5550000.03 L 14590551.00 5568013.00 A 693905.80 693905.80 0 0 1 13968013.00 6190551.00  zM 11949999.98 8875035.16 L 11949999.99 8770989.41 L 11971841.00 8768114.00 A 277581.82 277581.82 0 0 0 12168114.00 8571841.00 L 12170989.41 8550000.01 L 12275035.15 8550000.02 A 377245.77 377245.77 0 0 1 11949999.98 8875035.16  zM 13849999.97 10190551.00 L 13831987.00 10190551.00 A 693905.80 693905.80 0 0 1 13209449.00 9568013.00 L 13209449.00 9549999.97 L 13311516.50 9549999.97 L 13317994.00 9615768.00 A 593404.85 593404.85 0 0 0 13784232.00 10082006.00 L 13849999.97 10088483.49 L 13849999.97 10190551.00  zM 13311516.51 9449999.97 L 13209449.00 9449999.97 L 13209449.00 9431987.00 A 693905.80 693905.80 0 0 1 13831987.00 8809449.00 L 13850000.03 8809449.00 L 13850000.03 8911516.50 L 13784232.00 8917994.00 A 593404.85 593404.85 0 0 0 13317994.00 9384232.00 L 13311516.51 9449999.97  zM 13900000.71 9499997.07 m -397100.93 0 a 397100.93 397100.93 0 1 1 794201.86 0a 397100.93 397100.93 0 1 1 -794201.86 0M 14590551.00 9450000.03 L 14488483.50 9450000.03 L 14482006.00 9384232.00 A 593404.85 593404.85 0 0 0 14015768.00 8917994.00 L 13950000.03 8911516.51 L 13950000.03 8809449.00 L 13968013.00 8809449.00 A 693905.80 693905.80 0 0 1 14590551.00 9431987.00 L 14590551.00 9450000.03  zM 13968013.00 10190551.00 L 13949999.97 10190551.00 L 13949999.97 10088483.50 L 14015768.00 10082006.00 A 593404.85 593404.85 0 0 0 14482006.00 9615768.00 L 14488483.49 9550000.03 L 14590551.00 9550000.03 L 14590551.00 9568013.00 A 693905.80 693905.80 0 0 1 13968013.00 10190551.00  zM 13311516.51 15449999.97 L 13209449.00 15449999.97 L 13209449.00 15431987.00 A 693905.80 693905.80 0 0 1 13831987.00 14809449.00 L 13850000.03 14809449.00 L 13850000.03 14911516.50 L 13784232.00 14917994.00 A 593404.85 593404.85 0 0 0 13317994.00 15384232.00 L 13311516.51 15449999.97  zM 14590551.00 15450000.03 L 14488483.50 15450000.03 L 14482006.00 15384232.00 A 593404.85 593404.85 0 0 0 14015768.00 14917994.00 L 13950000.03 14911516.51 L 13950000.03 14809449.00 L 13968013.00 14809449.00 A 693905.80 693905.80 0 0 1 14590551.00 15431987.00 L 14590551.00 15450000.03  zM 9274353.06 23247061.00 L 9836650.94 23247061.00 L 10447061.00 22636650.06 L 10447061.00 8000000.00 L 10458703.00 7941473.00 L 10491856.00 7891856.00 L 10991856.00 7391856.00 L 11041473.00 7358703.00 L 11100000.00 7347061.00 L 11524803.00 7347061.00 L 11524803.00 7124803.00 L 12275197.00 7124803.00 L 12275197.00 7875197.00 L 11524803.00 7875197.00 L 11524803.00 7652939.00 L 11163349.00 7652939.00 L 10752939.00 8063349.00 L 10752939.00 22700000.00 L 10741297.00 22758528.00 L 10708144.00 22808145.00 L 10008144.00 23508144.00 L 9958527.00 23541297.00 L 9900000.00 23552939.00 L 9274353.06 23552939.00 A 401048.06 401048.06 0 1 1 9274353.06 23247061.00  zM 13849999.97 16190551.00 L 13831987.00 16190551.00 A 693905.80 693905.80 0 0 1 13209449.00 15568013.00 L 13209449.00 15549999.97 L 13311516.50 15549999.97 L 13317994.00 15615768.00 A 593404.85 593404.85 0 0 0 13784232.00 16082006.00 L 13849999.97 16088483.49 L 13849999.97 16190551.00  zM 13900000.71 15499997.07 m -397100.93 0 a 397100.93 397100.93 0 1 1 794201.86 0a 397100.93 397100.93 0 1 1 -794201.86 0M 2900000.00 19400003.92 m -404638.95 0 a 404638.95 404638.95 0 1 1 809277.91 0a 404638.95 404638.95 0 1 1 -809277.91 0M 2900000.00 20400003.92 m -404638.95 0 a 404638.95 404638.95 0 1 1 809277.91 0a 404638.95 404638.95 0 1 1 -809277.91 0M 2900000.00 21400003.92 m -404638.95 0 a 404638.95 404638.95 0 1 1 809277.91 0a 404638.95 404638.95 0 1 1 -809277.91 0M 2900000.00 17400003.92 m -404638.95 0 a 404638.95 404638.95 0 1 1 809277.91 0a 404638.95 404638.95 0 1 1 -809277.91 0M 2900000.00 18400003.92 m -404638.95 0 a 404638.95 404638.95 0 1 1 809277.91 0a 404638.95 404638.95 0 1 1 -809277.91 0M 8900000.00 18400003.92 m -404638.95 0 a 404638.95 404638.95 0 1 1 809277.91 0a 404638.95 404638.95 0 1 1 -809277.91 0M 8900000.00 17400003.92 m -404638.95 0 a 404638.95 404638.95 0 1 1 809277.91 0a 404638.95 404638.95 0 1 1 -809277.91 0M 8900000.00 19400003.92 m -404638.95 0 a 404638.95 404638.95 0 1 1 809277.91 0a 404638.95 404638.95 0 1 1 -809277.91 0M 8900000.00 20400003.92 m -404638.95 0 a 404638.95 404638.95 0 1 1 809277.91 0a 404638.95 404638.95 0 1 1 -809277.91 0M 9274353.06 24247061.00 L 10386650.92 24247061.00 L 10847061.00 23786650.08 L 10847061.00 17700000.00 L 10858703.00 17641473.00 L 10891856.00 17591856.00 L 11091856.00 17391856.00 L 11141473.00 17358703.00 L 11200000.00 17347061.00 L 11524803.00 17347061.00 L 11524803.00 17124803.00 L 12275197.00 17124803.00 L 12275197.00 17875197.00 L 11524803.00 17875197.00 L 11524803.00 17652939.00 L 11263349.00 17652939.00 L 11152939.00 17763349.00 L 11152939.00 23850000.00 L 11141297.00 23908528.00 L 11108144.00 23958145.00 L 10558144.00 24508144.00 L 10508527.00 24541297.00 L 10450000.00 24552939.00 L 9274353.06 24552939.00 A 401048.06 401048.06 0 1 1 9274353.06 24247061.00  zM 8900000.00 21400003.92 m -404638.95 0 a 404638.95 404638.95 0 1 1 809277.91 0a 404638.95 404638.95 0 1 1 -809277.91 0M 11629010.59 18449999.99 L 11524964.85 18449999.98 A 377245.77 377245.77 0 0 1 11850000.02 18124964.84 L 11850000.01 18229010.59 L 11828159.00 18231886.00 A 277581.82 277581.82 0 0 0 11631886.00 18428159.00 L 11629010.59 18449999.99  zM 12275035.16 18450000.02 L 12170989.41 18450000.01 L 12168114.00 18428159.00 A 277581.82 277581.82 0 0 0 11971841.00 18231886.00 L 11950000.01 18229010.59 L 11950000.02 18124964.85 A 377245.77 377245.77 0 0 1 12275035.16 18450000.02  zM 13968013.00 16190551.00 L 13949999.97 16190551.00 L 13949999.97 16088483.50 L 14015768.00 16082006.00 A 593404.85 593404.85 0 0 0 14482006.00 15615768.00 L 14488483.49 15550000.03 L 14590551.00 15550000.03 L 14590551.00 15568013.00 A 693905.80 693905.80 0 0 1 13968013.00 16190551.00  zM 11849999.98 18875035.15 A 377245.77 377245.77 0 0 1 11524964.84 18549999.98 L 11629010.59 18549999.99 L 11631886.00 18571841.00 A 277581.82 277581.82 0 0 0 11828159.00 18768114.00 L 11849999.99 18770989.41 L 11849999.98 18875035.15  zM 11899999.60 18499999.89 m -178629.11 0 a 178629.11 178629.11 0 1 1 357258.23 0a 178629.11 178629.11 0 1 1 -357258.23 0M 11949999.98 18875035.16 L 11949999.99 18770989.41 L 11971841.00 18768114.00 A 277581.82 277581.82 0 0 0 12168114.00 18571841.00 L 12170989.41 18550000.01 L 12275035.15 18550000.02 A 377245.77 377245.77 0 0 1 11949999.98 18875035.16  zM 13311516.51 19449999.97 L 13209449.00 19449999.97 L 13209449.00 19431987.00 A 693905.80 693905.80 0 0 1 13831987.00 18809449.00 L 13850000.03 18809449.00 L 13850000.03 18911516.50 L 13784232.00 18917994.00 A 593404.85 593404.85 0 0 0 13317994.00 19384232.00 L 13311516.51 19449999.97  zM 13900000.71 19499997.07 m -397100.93 0 a 397100.93 397100.93 0 1 1 794201.86 0a 397100.93 397100.93 0 1 1 -794201.86 0M 13849999.97 20190551.00 L 13831987.00 20190551.00 A 693905.80 693905.80 0 0 1 13209449.00 19568013.00 L 13209449.00 19549999.97 L 13311516.50 19549999.97 L 13317994.00 19615768.00 A 593404.85 593404.85 0 0 0 13784232.00 20082006.00 L 13849999.97 20088483.49 L 13849999.97 20190551.00  zM 14590551.00 19450000.03 L 14488483.50 19450000.03 L 14482006.00 19384232.00 A 593404.85 593404.85 0 0 0 14015768.00 18917994.00 L 13950000.03 18911516.51 L 13950000.03 18809449.00 L 13968013.00 18809449.00 A 693905.80 693905.80 0 0 1 14590551.00 19431987.00 L 14590551.00 19450000.03  zM 13968013.00 20190551.00 L 13949999.97 20190551.00 L 13949999.97 20088483.50 L 14015768.00 20082006.00 A 593404.85 593404.85 0 0 0 14482006.00 19615768.00 L 14488483.49 19550000.03 L 14590551.00 19550000.03 L 14590551.00 19568013.00 A 693905.80 693905.80 0 0 1 13968013.00 20190551.00  zM 2900000.00 23400003.92 m -404638.95 0 a 404638.95 404638.95 0 1 1 809277.91 0a 404638.95 404638.95 0 1 1 -809277.91 0M 2900000.00 24400003.92 m -404638.95 0 a 404638.95 404638.95 0 1 1 809277.91 0a 404638.95 404638.95 0 1 1 -809277.91 0M 2900000.00 25400003.92 m -404638.95 0 a 404638.95 404638.95 0 1 1 809277.91 0a 404638.95 404638.95 0 1 1 -809277.91 0M 2900000.00 26400003.92 m -404638.95 0 a 404638.95 404638.95 0 1 1 809277.91 0a 404638.95 404638.95 0 1 1 -809277.91 0M 2900000.00 27400003.92 m -404638.95 0 a 404638.95 404638.95 0 1 1 809277.91 0a 404638.95 404638.95 0 1 1 -809277.91 0M 2602802.60 28350000.00 L 2498819.00 28350000.00 A 399659.32 399659.32 0 0 1 2653669.00 28078975.00 L 2745150.00 28026159.00 L 2850000.00 27998819.00 L 2850000.00 28102802.60 L 2821376.00 28106571.00 A 303787.51 303787.51 0 0 0 2606571.00 28321376.00 L 2602802.60 28350000.00  zM 2900000.00 22400003.92 m -404638.95 0 a 404638.95 404638.95 0 1 1 809277.91 0a 404638.95 404638.95 0 1 1 -809277.91 0M 3301181.00 28350000.00 L 3197197.40 28350000.00 L 3193429.00 28321376.00 A 303787.51 303787.51 0 0 0 2978624.00 28106571.00 L 2950000.00 28102802.60 L 2950000.00 27998819.00 A 399659.32 399659.32 0 0 1 3221025.00 28153669.00 L 3273841.00 28245150.00 L 3301181.00 28347183.00 L 3301181.00 28350000.00  zM 8900000.00 26400003.92 m -404638.95 0 a 404638.95 404638.95 0 1 1 809277.91 0a 404638.95 404638.95 0 1 1 -809277.91 0M 8900000.00 22400003.92 m -404638.95 0 a 404638.95 404638.95 0 1 1 809277.91 0a 404638.95 404638.95 0 1 1 -809277.91 0M 8900000.00 28400003.92 m -404638.95 0 a 404638.95 404638.95 0 1 1 809277.91 0a 404638.95 404638.95 0 1 1 -809277.91 0M 2850000.00 28801181.00 A 399659.32 399659.32 0 0 1 2578975.00 28646331.00 L 2526159.00 28554850.00 L 2498819.00 28450000.00 L 2602802.60 28450000.00 L 2606571.00 28478624.00 A 303787.51 303787.51 0 0 0 2821376.00 28693429.00 L 2850000.00 28697197.40 L 2850000.00 28801181.00  zM 2899999.24 28399999.93 m -204721.07 0 a 204721.07 204721.07 0 1 1 409442.13 0a 204721.07 204721.07 0 1 1 -409442.13 0M 2900000.00 29400003.92 m -404638.95 0 a 404638.95 404638.95 0 1 1 809277.91 0a 404638.95 404638.95 0 1 1 -809277.91 0M 2900000.00 30400003.92 m -404638.95 0 a 404638.95 404638.95 0 1 1 809277.91 0a 404638.95 404638.95 0 1 1 -809277.91 0M 3301181.00 31801181.00 L 2498819.00 31801181.00 L 2498819.00 30998819.00 L 3301181.00 30998819.00 L 3301181.00 31801181.00  zM 1250000.00 33750005.86 m -746086.82 0 a 746086.82 746086.82 0 1 1 1492173.64 0a 746086.82 746086.82 0 1 1 -1492173.64 0M 2950000.00 28801181.00 L 2950000.00 28697197.40 L 2978624.00 28693429.00 A 303787.51 303787.51 0 0 0 3193429.00 28478624.00 L 3197197.40 28450000.00 L 3301181.00 28450000.00 A 399659.32 399659.32 0 0 1 3146331.00 28721025.00 L 3054850.00 28773841.00 L 2950000.00 28801181.00  zM 8602802.60 30350000.00 L 8498819.00 30350000.00 A 399659.32 399659.32 0 0 1 8653669.00 30078975.00 L 8745150.00 30026159.00 L 8850000.00 29998819.00 L 8850000.00 30102802.60 L 8821376.00 30106571.00 A 303787.51 303787.51 0 0 0 8606571.00 30321376.00 L 8602802.60 30350000.00  zM 8850000.00 30801181.00 A 399659.32 399659.32 0 0 1 8578975.00 30646331.00 L 8526159.00 30554850.00 L 8498819.00 30450000.00 L 8602802.60 30450000.00 L 8606571.00 30478624.00 A 303787.51 303787.51 0 0 0 8821376.00 30693429.00 L 8850000.00 30697197.40 L 8850000.00 30801181.00  zM 8899999.24 30399999.93 m -204721.07 0 a 204721.07 204721.07 0 1 1 409442.13 0a 204721.07 204721.07 0 1 1 -409442.13 0M 9301181.00 31801181.00 L 8498819.00 31801181.00 L 8498819.00 30998819.00 L 9301181.00 30998819.00 L 9301181.00 31801181.00  zM 8900000.00 27400003.92 m -404638.95 0 a 404638.95 404638.95 0 1 1 809277.91 0a 404638.95 404638.95 0 1 1 -809277.91 0M 12275197.00 27875197.00 L 11524803.00 27875197.00 L 11524803.00 27652939.00 L 11200000.00 27652939.00 L 11141473.00 27641297.00 L 11091856.00 27608144.00 L 10641856.00 27158144.00 L 10608703.00 27108527.00 L 10597061.00 27050000.00 L 10597061.00 25863349.89 L 10286650.89 25552939.00 L 9274353.06 25552939.00 A 401048.06 401048.06 0 1 1 9221025.00 25153669.00 L 9274353.06 25247061.00 L 10350000.00 25247061.00 L 10408527.00 25258703.00 L 10458144.00 25291856.00 L 10858144.00 25691855.00 L 10891297.00 25741472.00 L 10902939.00 25800000.00 L 10902939.00 26986651.00 L 11263349.00 27347061.00 L 11524803.00 27347061.00 L 11524803.00 27124803.00 L 12275197.00 27124803.00 L 12275197.00 27875197.00  zM 11629010.59 28449999.99 L 11524964.85 28449999.98 A 377245.77 377245.77 0 0 1 11850000.02 28124964.84 L 11850000.01 28229010.59 L 11828159.00 28231886.00 A 277581.82 277581.82 0 0 0 11631886.00 28428159.00 L 11629010.59 28449999.99  zM 11849999.98 28875035.15 A 377245.77 377245.77 0 0 1 11524964.84 28549999.98 L 11629010.59 28549999.99 L 11631886.00 28571841.00 A 277581.82 277581.82 0 0 0 11828159.00 28768114.00 L 11849999.99 28770989.41 L 11849999.98 28875035.15  zM 11899999.60 28499999.89 m -178629.11 0 a 178629.11 178629.11 0 1 1 357258.23 0a 178629.11 178629.11 0 1 1 -357258.23 0M 12275035.16 28450000.02 L 12170989.41 28450000.01 L 12168114.00 28428159.00 A 277581.82 277581.82 0 0 0 11971841.00 28231886.00 L 11950000.01 28229010.59 L 11950000.02 28124964.85 A 377245.77 377245.77 0 0 1 12275035.16 28450000.02  zM 13311516.51 25449999.97 L 13209449.00 25449999.97 L 13209449.00 25431987.00 A 693905.80 693905.80 0 0 1 13831987.00 24809449.00 L 13850000.03 24809449.00 L 13850000.03 24911516.50 L 13784232.00 24917994.00 A 593404.85 593404.85 0 0 0 13317994.00 25384232.00 L 13311516.51 25449999.97  zM 13900000.71 25499997.07 m -397100.93 0 a 397100.93 397100.93 0 1 1 794201.86 0a 397100.93 397100.93 0 1 1 -794201.86 0M 13849999.97 26190551.00 L 13831987.00 26190551.00 A 693905.80 693905.80 0 0 1 13209449.00 25568013.00 L 13209449.00 25549999.97 L 13311516.50 25549999.97 L 13317994.00 25615768.00 A 593404.85 593404.85 0 0 0 13784232.00 26082006.00 L 13849999.97 26088483.49 L 13849999.97 26190551.00  zM 14590551.00 25450000.03 L 14488483.50 25450000.03 L 14482006.00 25384232.00 A 593404.85 593404.85 0 0 0 14015768.00 24917994.00 L 13950000.03 24911516.51 L 13950000.03 24809449.00 L 13968013.00 24809449.00 A 693905.80 693905.80 0 0 1 14590551.00 25431987.00 L 14590551.00 25450000.03  zM 13968013.00 26190551.00 L 13949999.97 26190551.00 L 13949999.97 26088483.50 L 14015768.00 26082006.00 A 593404.85 593404.85 0 0 0 14482006.00 25615768.00 L 14488483.49 25550000.03 L 14590551.00 25550000.03 L 14590551.00 25568013.00 A 693905.80 693905.80 0 0 1 13968013.00 26190551.00  zM 8900000.00 29400003.92 m -404638.95 0 a 404638.95 404638.95 0 1 1 809277.91 0a 404638.95 404638.95 0 1 1 -809277.91 0M 9301181.00 30350000.00 L 9197197.40 30350000.00 L 9193429.00 30321376.00 A 303787.51 303787.51 0 0 0 8978624.00 30106571.00 L 8950000.00 30102802.60 L 8950000.00 29998819.00 A 399659.32 399659.32 0 0 1 9221025.00 30153669.00 L 9273841.00 30245150.00 L 9301181.00 30347183.00 L 9301181.00 30350000.00  zM 8950000.00 30801181.00 L 8950000.00 30697197.40 L 8978624.00 30693429.00 A 303787.51 303787.51 0 0 0 9193429.00 30478624.00 L 9197197.40 30450000.00 L 9301181.00 30450000.00 A 399659.32 399659.32 0 0 1 9146331.00 30721025.00 L 9054850.00 30773841.00 L 8950000.00 30801181.00  zM 11949999.98 28875035.16 L 11949999.99 28770989.41 L 11971841.00 28768114.00 A 277581.82 277581.82 0 0 0 12168114.00 28571841.00 L 12170989.41 28550000.01 L 12275035.15 28550000.02 A 377245.77 377245.77 0 0 1 11949999.98 28875035.16  zM 13849999.97 30190551.00 L 13831987.00 30190551.00 A 693905.80 693905.80 0 0 1 13209449.00 29568013.00 L 13209449.00 29549999.97 L 13311516.50 29549999.97 L 13317994.00 29615768.00 A 593404.85 593404.85 0 0 0 13784232.00 30082006.00 L 13849999.97 30088483.49 L 13849999.97 30190551.00  zM 13311516.51 29449999.97 L 13209449.00 29449999.97 L 13209449.00 29431987.00 A 693905.80 693905.80 0 0 1 13831987.00 28809449.00 L 13850000.03 28809449.00 L 13850000.03 28911516.50 L 13784232.00 28917994.00 A 593404.85 593404.85 0 0 0 13317994.00 29384232.00 L 13311516.51 29449999.97  zM 13900000.71 29499997.07 m -397100.93 0 a 397100.93 397100.93 0 1 1 794201.86 0a 397100.93 397100.93 0 1 1 -794201.86 0M 14590551.00 29450000.03 L 14488483.50 29450000.03 L 14482006.00 29384232.00 A 593404.85 593404.85 0 0 0 14015768.00 28917994.00 L 13950000.03 28911516.51 L 13950000.03 28809449.00 L 13968013.00 28809449.00 A 693905.80 693905.80 0 0 1 14590551.00 29431987.00 L 14590551.00 29450000.03  zM 13968013.00 30190551.00 L 13949999.97 30190551.00 L 13949999.97 30088483.50 L 14015768.00 30082006.00 A 593404.85 593404.85 0 0 0 14482006.00 29615768.00 L 14488483.49 29550000.03 L 14590551.00 29550000.03 L 14590551.00 29568013.00 A 693905.80 693905.80 0 0 1 13968013.00 30190551.00  zM 16250000.00 33750005.86 m -746086.82 0 a 746086.82 746086.82 0 1 1 1492173.64 0a 746086.82 746086.82 0 1 1 -1492173.64 0"/>
</g>
</svg>
