<svg width="44.45mm" height="88.646mm" viewBox="0 0 17500000 34900000"  version="1.1" xmlns="http://www.w3.org/2000/svg" xmlns:xlink="http://www.w3.org/1999/xlink">
<desc>
Origin 0 0 Bound 0 0 17500000 34900000
</desc>
<g fill-rule="evenodd" fill="rgb(255, 255, 0)" stroke="black" stroke-width="1" transform="translate(0, 34900000) scale(1, -1) translate(0, 0)">
<path id="N" d="M 11211449.00 26786457.00 L 11236441.00 26761465.00 L 11241196.00 26749981.59 L 11241197.00 26724992.00 L 11236441.00 26713511.00 L 11222930.00 26700000.00 L 11236441.00 26686489.00 L 11241196.00 26675005.59 L 11241197.00 26650016.00 L 11236441.00 26638535.00 L 11211449.00 26613543.00 L 11199965.59 26608788.00 L 11149984.00 26608787.00 L 11138503.00 26613543.00 L 11113511.00 26638535.00 L 11108755.00 26650016.00 L 11113511.00 26661497.00 L 11124992.00 26666253.00 L 11136473.00 26661497.00 L 11156710.00 26641260.00 L 11193242.00 26641260.00 L 11208724.00 26656742.00 L 11208724.00 26668282.00 L 11193242.00 26683764.00 L 11174976.00 26683764.00 L 11163495.00 26688519.00 L 11158740.00 26700000.00 L 11163495.00 26711481.00 L 11174976.00 26716236.00 L 11193242.00 26716236.00 L 11208724.00 26731718.00 L 11208724.00 26743258.00 L 11193242.00 26758740.00 L 11156710.00 26758740.00 L 11136473.00 26738503.00 L 11124992.00 26733747.00 L 11113511.00 26738503.00 L 11108755.00 26749984.00 L 11113511.00 26761465.00 L 11138503.00 26786457.00 L 11149986.41 26791212.00 L 11199968.00 26791213.00 L 11211449.00 26786457.00  z"/>
<path id="N" d="M 11261449.00 16686457.00 L 11286441.00 16661465.00 L 11291196.00 16649981.59 L 11291197.00 16624992.00 L 11286441.00 16613511.00 L 11214190.00 16541260.00 L 11274960.00 16541260.00 L 11286441.00 16536505.00 L 11291196.00 16525024.00 L 11286441.00 16513543.00 L 11274960.00 16508788.00 L 11174992.00 16508787.00 L 11163511.00 16513543.00 L 11158755.00 16525024.00 L 11163511.00 16536505.00 L 11258724.00 16631718.00 L 11258724.00 16643258.00 L 11243242.00 16658740.00 L 11206710.00 16658740.00 L 11186473.00 16638503.00 L 11174992.00 16633747.00 L 11163511.00 16638503.00 L 11158755.00 16649984.00 L 11163511.00 16661465.00 L 11188503.00 16686457.00 L 11199986.41 16691212.00 L 11249968.00 16691213.00 L 11261449.00 16686457.00  z"/>
<path id="N" d="M 5069071.00 7219086.00 L 5119054.00 7169102.00 L 5126979.00 7149968.00 L 5126979.00 7099984.00 L 5119053.00 7080850.00 L 4965312.00 6927109.00 L 5099919.00 6927109.00 L 5119053.00 6919183.00 L 5126979.00 6900049.00 L 5119053.00 6880915.00 L 5099919.00 6872989.00 L 4899984.00 6872989.00 L 4880850.00 6880915.00 L 4872924.00 6900049.00 L 4880850.00 6919183.00 L 5072859.00 7111192.00 L 5072859.00 7138759.32 L 5038727.68 7172892.00 L 4961176.00 7172892.00 L 4919118.00 7130834.00 L 4899984.00 7122908.00 L 4880850.00 7130834.00 L 4872924.00 7149968.00 L 4880850.00 7169102.00 L 4930834.00 7219086.00 L 4949968.00 7227012.00 L 5049936.00 7227012.00 L 5069071.00 7219086.00  z"/>
<path id="N" d="M 17509685.00 30422677.00 L 17517611.00 30403543.00 L 17517611.00 24596457.00 L 17509685.00 24577323.00 L 17490551.00 24569397.00 L 11608661.00 24569397.00 L 11589527.00 24577323.00 L 11581601.00 24596457.00 L 11581601.00 27066929.00 L 11589527.00 27086063.00 L 11608661.00 27093989.00 L 11627795.00 27086063.00 L 11635721.00 27066929.00 L 11635721.00 24623517.00 L 17463491.00 24623517.00 L 17463491.00 30376483.00 L 11635721.00 30376483.00 L 11635721.00 28901575.00 L 11627795.00 28882441.00 L 11608661.00 28874515.00 L 11589527.00 28882441.00 L 11581601.00 28901575.00 L 11581601.00 30403543.00 L 11589527.00 30422677.00 L 11608661.00 30430603.00 L 17490551.00 30430603.00 L 17509685.00 30422677.00  z"/>
<path id="N" d="M 17509685.00 10422677.00 L 17517611.00 10403543.00 L 17517611.00 4596457.00 L 17509685.00 4577323.00 L 17490551.00 4569397.00 L 11608661.00 4569397.00 L 11589527.00 4577323.00 L 11581601.00 4596457.00 L 11581601.00 7066929.00 L 11589527.00 7086063.00 L 11608661.00 7093989.00 L 11627795.00 7086063.00 L 11635721.00 7066929.00 L 11635721.00 4623517.00 L 17463491.00 4623517.00 L 17463491.00 10376483.00 L 11635721.00 10376483.00 L 11635721.00 8901575.00 L 11627795.00 8882441.00 L 11608661.00 8874515.00 L 11589527.00 8882441.00 L 11581601.00 8901575.00 L 11581601.00 10403543.00 L 11589527.00 10422677.00 L 11608661.00 10430603.00 L 17490551.00 10430603.00 L 17509685.00 10422677.00  z"/>
<path id="N" d="M 17509685.00 20422677.00 L 17517611.00 20403543.00 L 17517611.00 14596457.00 L 17509685.00 14577323.00 L 17490551.00 14569397.00 L 11608661.00 14569397.00 L 11589527.00 14577323.00 L 11581601.00 14596457.00 L 11581601.00 17066929.00 L 11589527.00 17086063.00 L 11608661.00 17093989.00 L 11627795.00 17086063.00 L 11635721.00 17066929.00 L 11635721.00 14623517.00 L 17463491.00 14623517.00 L 17463491.00 20376483.00 L 11635721.00 20376483.00 L 11635721.00 18901575.00 L 11627795.00 18882441.00 L 11608661.00 18874515.00 L 11589527.00 18882441.00 L 11581601.00 18901575.00 L 11581601.00 20403543.00 L 11589527.00 20422677.00 L 11608661.00 20430603.00 L 17490551.00 20430603.00 L 17509685.00 20422677.00  z"/>
<path id="N" d="M 11086489.00 26786457.00 L 11091244.00 26774976.00 L 11086489.00 26763495.00 L 11075008.00 26758740.00 L 11066252.00 26758740.00 L 11066253.00 26650016.00 L 11061497.00 26638535.00 L 11036505.00 26613543.00 L 11025021.59 26608788.00 L 11000032.00 26608787.00 L 10988551.00 26613543.00 L 10963559.00 26638535.00 L 10958803.00 26650016.00 L 10963559.00 26661497.00 L 10975040.00 26666253.00 L 10986521.00 26661497.00 L 11006758.00 26641260.00 L 11018298.00 26641260.00 L 11033780.00 26656742.00 L 11033780.00 26758740.00 L 11025024.00 26758740.00 L 11013543.00 26763495.00 L 11008788.00 26774976.00 L 11013543.00 26786457.00 L 11025024.00 26791212.00 L 11075008.00 26791212.00 L 11086489.00 26786457.00  z"/>
<path id="N" d="M 11211481.00 6936457.00 L 11216236.00 6924976.00 L 11211481.00 6913495.00 L 11200000.00 6908740.00 L 11191244.00 6908740.00 L 11191245.00 6800016.00 L 11186489.00 6788535.00 L 11161497.00 6763543.00 L 11150013.59 6758788.00 L 11125024.00 6758787.00 L 11113543.00 6763543.00 L 11088551.00 6788535.00 L 11083795.00 6800016.00 L 11088551.00 6811497.00 L 11100032.00 6816253.00 L 11111513.00 6811497.00 L 11131750.00 6791260.00 L 11143290.00 6791260.00 L 11158772.00 6806742.00 L 11158772.00 6908740.00 L 11150016.00 6908740.00 L 11138535.00 6913495.00 L 11133780.00 6924976.00 L 11138535.00 6936457.00 L 11150016.00 6941212.00 L 11200000.00 6941212.00 L 11211481.00 6936457.00  z"/>
<path id="N" d="M 11136489.00 16686457.00 L 11141244.00 16674976.00 L 11136489.00 16663495.00 L 11125008.00 16658740.00 L 11116252.00 16658740.00 L 11116253.00 16550016.00 L 11111497.00 16538535.00 L 11086505.00 16513543.00 L 11075021.59 16508788.00 L 11050032.00 16508787.00 L 11038551.00 16513543.00 L 11013559.00 16538535.00 L 11008803.00 16550016.00 L 11013559.00 16561497.00 L 11025040.00 16566253.00 L 11036521.00 16561497.00 L 11056758.00 16541260.00 L 11068298.00 16541260.00 L 11083780.00 16556742.00 L 11083780.00 16658740.00 L 11075024.00 16658740.00 L 11063543.00 16663495.00 L 11058788.00 16674976.00 L 11063543.00 16686457.00 L 11075024.00 16691212.00 L 11125008.00 16691212.00 L 11136489.00 16686457.00  z"/>
<path id="N" d="M 4819150.00 7219086.00 L 4827076.00 7199952.00 L 4827076.00 6950033.00 L 4819150.00 6930899.00 L 4769168.00 6880915.00 L 4750033.00 6872989.00 L 4650065.00 6872989.00 L 4630931.00 6880915.00 L 4580947.00 6930899.00 L 4573021.00 6950033.00 L 4573021.00 7199952.00 L 4580947.00 7219086.00 L 4600081.00 7227012.00 L 4619215.00 7219086.00 L 4627141.00 7199952.00 L 4627141.00 6961241.00 L 4661273.00 6927109.00 L 4738823.84 6927109.00 L 4772956.00 6961241.84 L 4772956.00 7199952.00 L 4780882.00 7219086.00 L 4800016.00 7227012.00 L 4819150.00 7219086.00  z"/>
<path id="N" d="M 11286457.00 6936457.00 L 11291212.00 6924973.59 L 11291212.00 6791260.00 L 11299968.00 6791260.00 L 11311449.00 6786505.00 L 11316204.00 6775024.00 L 11311449.00 6763543.00 L 11299968.00 6758788.00 L 11249984.00 6758788.00 L 11238503.00 6763543.00 L 11233748.00 6775024.00 L 11238503.00 6786505.00 L 11249984.00 6791260.00 L 11258740.00 6791260.00 L 11258740.00 6887374.17 L 11249984.00 6883747.00 L 11238503.00 6888503.00 L 11233747.00 6899984.00 L 11238503.00 6911465.00 L 11263495.00 6936457.00 L 11274976.00 6941213.00 L 11286457.00 6936457.00  z"/>
<path id="N" d="M 8668740.00 27418740.00 L 8676666.00 27399606.00 L 8676666.00 7600394.00 L 8668740.00 7581260.00 L 8649606.00 7573334.00 L 1350394.00 7573334.00 L 1331260.00 7581260.00 L 1323334.00 7600394.00 L 1323334.00 27399606.00 L 1331260.00 27418740.00 L 1350394.00 27426666.00 L 8649606.00 27426666.00 L 8668740.00 27418740.00  zM 8622546.00 27372546.00 L 1377454.00 27372546.00 L 1377454.00 7627454.00 L 8622546.00 7627454.00 L 8622546.00 27372546.00  z"/>
<path id="N" d="M 11340947.92 27500002.92 m -80279.37 0 a 80279.37 80279.37 0 1 1 160558.73 0a 80279.37 80279.37 0 1 1 -160558.73 0"/>
<path id="N" d="M 11340947.92 7500002.92 m -80279.37 0 a 80279.37 80279.37 0 1 1 160558.73 0a 80279.37 80279.37 0 1 1 -160558.73 0"/>
<path id="N" d="M 1000001.28 24500001.28 m -160563.76 0 a 160563.76 160563.76 0 1 1 321127.52 0a 160563.76 160563.76 0 1 1 -321127.52 0"/>
<path id="N" d="M 11340947.92 17500002.92 m -80279.37 0 a 80279.37 80279.37 0 1 1 160558.73 0a 80279.37 80279.37 0 1 1 -160558.73 0"/>
</g>
</svg>
