<svg width="53.975mm" height="107.95mm" viewBox="0 0 21250000 42500000"  version="1.1" xmlns="http://www.w3.org/2000/svg" xmlns:xlink="http://www.w3.org/1999/xlink">
<desc>
Origin 0 0 Bound 0 0 21250000 42500000
</desc>
<g fill-rule="evenodd" fill="rgb(255, 0, 255)" stroke="black" stroke-width="1" transform="translate(0, 42500000) scale(1, -1) translate(0, 0)">
<path id="N" d="M 21250000.00 0.00 L 0.00 0.00 L 0.00 42500000.00 L 21250000.00 42500000.00 L 21250000.00 0.00  zM 1249998.45 1250006.40 m -645602.60 0 a 645602.60 645602.60 0 1 1 1291205.19 0a 645602.60 645602.60 0 1 1 -1291205.19 0M 15600000.90 8499999.78 m -317917.22 0 a 317917.22 317917.22 0 1 1 635834.44 0a 317917.22 317917.22 0 1 1 -635834.44 0M 15915197.00 7815197.00 L 15284803.00 7815197.00 L 15284803.00 7184803.00 L 15915197.00 7184803.00 L 15915197.00 7815197.00  zM 19999998.45 1250006.40 m -645602.60 0 a 645602.60 645602.60 0 1 1 1291205.19 0a 645602.60 645602.60 0 1 1 -1291205.19 0M 17599994.62 5500026.02 m -633575.98 0 a 633575.98 633575.98 0 1 1 1267151.97 0a 633575.98 633575.98 0 1 1 -1267151.97 0M 17599994.62 9500026.02 m -633575.98 0 a 633575.98 633575.98 0 1 1 1267151.97 0a 633575.98 633575.98 0 1 1 -1267151.97 0M 15915197.00 17815197.00 L 15284803.00 17815197.00 L 15284803.00 17184803.00 L 15915197.00 17184803.00 L 15915197.00 17815197.00  zM 17599994.62 15500026.02 m -633575.98 0 a 633575.98 633575.98 0 1 1 1267151.97 0a 633575.98 633575.98 0 1 1 -1267151.97 0M 15600000.90 18499999.78 m -317917.22 0 a 317917.22 317917.22 0 1 1 635834.44 0a 317917.22 317917.22 0 1 1 -635834.44 0M 17599994.62 19500026.02 m -633575.98 0 a 633575.98 633575.98 0 1 1 1267151.97 0a 633575.98 633575.98 0 1 1 -1267151.97 0M 17599994.62 25500026.02 m -633575.98 0 a 633575.98 633575.98 0 1 1 1267151.97 0a 633575.98 633575.98 0 1 1 -1267151.97 0M 15915197.00 27815197.00 L 15284803.00 27815197.00 L 15284803.00 27184803.00 L 15915197.00 27184803.00 L 15915197.00 27815197.00  zM 1249998.45 32500006.40 m -645602.60 0 a 645602.60 645602.60 0 1 1 1291205.19 0a 645602.60 645602.60 0 1 1 -1291205.19 0M 5700001.39 34499996.65 m -344128.35 0 a 344128.35 344128.35 0 1 1 688256.71 0a 344128.35 344128.35 0 1 1 -688256.71 0M 6700001.39 34499996.65 m -344128.35 0 a 344128.35 344128.35 0 1 1 688256.71 0a 344128.35 344128.35 0 1 1 -688256.71 0M 7700001.39 34499996.65 m -344128.35 0 a 344128.35 344128.35 0 1 1 688256.71 0a 344128.35 344128.35 0 1 1 -688256.71 0M 8700001.39 34499996.65 m -344128.35 0 a 344128.35 344128.35 0 1 1 688256.71 0a 344128.35 344128.35 0 1 1 -688256.71 0M 10700001.39 34499996.65 m -344128.35 0 a 344128.35 344128.35 0 1 1 688256.71 0a 344128.35 344128.35 0 1 1 -688256.71 0M 15600000.90 28499999.78 m -317917.22 0 a 317917.22 317917.22 0 1 1 635834.44 0a 317917.22 317917.22 0 1 1 -635834.44 0M 14700001.39 34499996.65 m -344128.35 0 a 344128.35 344128.35 0 1 1 688256.71 0a 344128.35 344128.35 0 1 1 -688256.71 0M 12700001.39 34499996.65 m -344128.35 0 a 344128.35 344128.35 0 1 1 688256.71 0a 344128.35 344128.35 0 1 1 -688256.71 0M 17599994.62 29500026.02 m -633575.98 0 a 633575.98 633575.98 0 1 1 1267151.97 0a 633575.98 633575.98 0 1 1 -1267151.97 0M 19999998.45 32500006.40 m -645602.60 0 a 645602.60 645602.60 0 1 1 1291205.19 0a 645602.60 645602.60 0 1 1 -1291205.19 0M 3700001.39 34499996.65 m -344128.35 0 a 344128.35 344128.35 0 1 1 688256.71 0a 344128.35 344128.35 0 1 1 -688256.71 0M 4700001.39 34499996.65 m -344128.35 0 a 344128.35 344128.35 0 1 1 688256.71 0a 344128.35 344128.35 0 1 1 -688256.71 0M 4700001.39 40499996.65 m -344128.35 0 a 344128.35 344128.35 0 1 1 688256.71 0a 344128.35 344128.35 0 1 1 -688256.71 0M 3700001.39 40499996.65 m -344128.35 0 a 344128.35 344128.35 0 1 1 688256.71 0a 344128.35 344128.35 0 1 1 -688256.71 0M 5700001.39 40499996.65 m -344128.35 0 a 344128.35 344128.35 0 1 1 688256.71 0a 344128.35 344128.35 0 1 1 -688256.71 0M 6700001.39 40499996.65 m -344128.35 0 a 344128.35 344128.35 0 1 1 688256.71 0a 344128.35 344128.35 0 1 1 -688256.71 0M 9700001.39 34499996.65 m -344128.35 0 a 344128.35 344128.35 0 1 1 688256.71 0a 344128.35 344128.35 0 1 1 -688256.71 0M 9700001.39 40499996.65 m -344128.35 0 a 344128.35 344128.35 0 1 1 688256.71 0a 344128.35 344128.35 0 1 1 -688256.71 0M 8700001.39 40499996.65 m -344128.35 0 a 344128.35 344128.35 0 1 1 688256.71 0a 344128.35 344128.35 0 1 1 -688256.71 0M 7700001.39 40499996.65 m -344128.35 0 a 344128.35 344128.35 0 1 1 688256.71 0a 344128.35 344128.35 0 1 1 -688256.71 0M 10700001.39 40499996.65 m -344128.35 0 a 344128.35 344128.35 0 1 1 688256.71 0a 344128.35 344128.35 0 1 1 -688256.71 0M 11700001.39 40499996.65 m -344128.35 0 a 344128.35 344128.35 0 1 1 688256.71 0a 344128.35 344128.35 0 1 1 -688256.71 0M 11700001.39 34499996.65 m -344128.35 0 a 344128.35 344128.35 0 1 1 688256.71 0a 344128.35 344128.35 0 1 1 -688256.71 0M 16700001.39 34499996.65 m -344128.35 0 a 344128.35 344128.35 0 1 1 688256.71 0a 344128.35 344128.35 0 1 1 -688256.71 0M 18041181.00 34841181.00 L 17358819.00 34841181.00 L 17358819.00 34158819.00 L 18041181.00 34158819.00 L 18041181.00 34841181.00  zM 13700001.39 34499996.65 m -344128.35 0 a 344128.35 344128.35 0 1 1 688256.71 0a 344128.35 344128.35 0 1 1 -688256.71 0M 15700001.39 34499996.65 m -344128.35 0 a 344128.35 344128.35 0 1 1 688256.71 0a 344128.35 344128.35 0 1 1 -688256.71 0M 13700001.39 40499996.65 m -344128.35 0 a 344128.35 344128.35 0 1 1 688256.71 0a 344128.35 344128.35 0 1 1 -688256.71 0M 12700001.39 40499996.65 m -344128.35 0 a 344128.35 344128.35 0 1 1 688256.71 0a 344128.35 344128.35 0 1 1 -688256.71 0M 14700001.39 40499996.65 m -344128.35 0 a 344128.35 344128.35 0 1 1 688256.71 0a 344128.35 344128.35 0 1 1 -688256.71 0M 15700001.39 40499996.65 m -344128.35 0 a 344128.35 344128.35 0 1 1 688256.71 0a 344128.35 344128.35 0 1 1 -688256.71 0M 16700001.39 40499996.65 m -344128.35 0 a 344128.35 344128.35 0 1 1 688256.71 0a 344128.35 344128.35 0 1 1 -688256.71 0M 18041181.00 40841181.00 L 17358819.00 40841181.00 L 17358819.00 40158819.00 L 18041181.00 40158819.00 L 18041181.00 40841181.00  z"/>
</g>
</svg>
