<svg width="44.45mm" height="88.646mm" viewBox="0 0 17500000 34900000"  version="1.1" xmlns="http://www.w3.org/2000/svg" xmlns:xlink="http://www.w3.org/1999/xlink">
<desc>
Origin 0 0 Bound 0 0 17500000 34900000
</desc>
<g fill-rule="evenodd" fill="rgb(255, 0, 0)" stroke="black" stroke-width="1" transform="translate(0, 34900000) scale(1, -1) translate(0, 0)">
<path id="N" d="M 8899996.34 25399993.24 m -303787.51 0 a 303787.51 303787.51 0 1 1 607575.03 0a 303787.51 303787.51 0 1 1 -607575.03 0M 8899999.24 25399999.93 m -204721.07 0 a 204721.07 204721.07 0 1 1 409442.13 0a 204721.07 204721.07 0 1 1 -409442.13 0"/>
<path id="N" d="M 12175197.00 27224803.00 L 11624803.00 27224803.00 L 11624803.00 27775197.00 L 12175197.00 27775197.00 L 12175197.00 27224803.00  zM 11899999.60 27499999.89 m -178629.11 0 a 178629.11 178629.11 0 1 1 357258.23 0a 178629.11 178629.11 0 1 1 -357258.23 0"/>
<path id="N" d="M 8899996.34 24399993.24 m -303787.51 0 a 303787.51 303787.51 0 1 1 607575.03 0a 303787.51 303787.51 0 1 1 -607575.03 0M 8899999.24 24399999.93 m -204721.07 0 a 204721.07 204721.07 0 1 1 409442.13 0a 204721.07 204721.07 0 1 1 -409442.13 0"/>
<path id="N" d="M 12175197.00 17224803.00 L 11624803.00 17224803.00 L 11624803.00 17775197.00 L 12175197.00 17775197.00 L 12175197.00 17224803.00  zM 11899999.60 17499999.89 m -178629.11 0 a 178629.11 178629.11 0 1 1 357258.23 0a 178629.11 178629.11 0 1 1 -357258.23 0"/>
<path id="N" d="M 2899996.34 26399993.24 m -303787.51 0 a 303787.51 303787.51 0 1 1 607575.03 0a 303787.51 303787.51 0 1 1 -607575.03 0M 2899999.24 26399999.93 m -204721.07 0 a 204721.07 204721.07 0 1 1 409442.13 0a 204721.07 204721.07 0 1 1 -409442.13 0"/>
<path id="N" d="M 2899996.34 27399993.24 m -303787.51 0 a 303787.51 303787.51 0 1 1 607575.03 0a 303787.51 303787.51 0 1 1 -607575.03 0M 2899999.24 27399999.93 m -204721.07 0 a 204721.07 204721.07 0 1 1 409442.13 0a 204721.07 204721.07 0 1 1 -409442.13 0"/>
<path id="N" d="M 8899996.34 26399993.24 m -303787.51 0 a 303787.51 303787.51 0 1 1 607575.03 0a 303787.51 303787.51 0 1 1 -607575.03 0M 8899999.24 26399999.93 m -204721.07 0 a 204721.07 204721.07 0 1 1 409442.13 0a 204721.07 204721.07 0 1 1 -409442.13 0"/>
<path id="N" d="M 8899996.34 29399993.24 m -303787.51 0 a 303787.51 303787.51 0 1 1 607575.03 0a 303787.51 303787.51 0 1 1 -607575.03 0M 8899999.24 29399999.93 m -204721.07 0 a 204721.07 204721.07 0 1 1 409442.13 0a 204721.07 204721.07 0 1 1 -409442.13 0"/>
<path id="N" d="M 2899996.34 25399993.24 m -303787.51 0 a 303787.51 303787.51 0 1 1 607575.03 0a 303787.51 303787.51 0 1 1 -607575.03 0M 2899999.24 25399999.93 m -204721.07 0 a 204721.07 204721.07 0 1 1 409442.13 0a 204721.07 204721.07 0 1 1 -409442.13 0"/>
<path id="N" d="M 2899996.34 24399993.24 m -303787.51 0 a 303787.51 303787.51 0 1 1 607575.03 0a 303787.51 303787.51 0 1 1 -607575.03 0M 2899999.24 24399999.93 m -204721.07 0 a 204721.07 204721.07 0 1 1 409442.13 0a 204721.07 204721.07 0 1 1 -409442.13 0"/>
<path id="N" d="M 2899996.34 30399993.24 m -303787.51 0 a 303787.51 303787.51 0 1 1 607575.03 0a 303787.51 303787.51 0 1 1 -607575.03 0M 2899999.24 30399999.93 m -204721.07 0 a 204721.07 204721.07 0 1 1 409442.13 0a 204721.07 204721.07 0 1 1 -409442.13 0"/>
<path id="N" d="M 2899996.34 18399993.24 m -303787.51 0 a 303787.51 303787.51 0 1 1 607575.03 0a 303787.51 303787.51 0 1 1 -607575.03 0M 2899999.24 18399999.93 m -204721.07 0 a 204721.07 204721.07 0 1 1 409442.13 0a 204721.07 204721.07 0 1 1 -409442.13 0"/>
<path id="N" d="M 2899996.34 22399993.24 m -303787.51 0 a 303787.51 303787.51 0 1 1 607575.03 0a 303787.51 303787.51 0 1 1 -607575.03 0M 2899999.24 22399999.93 m -204721.07 0 a 204721.07 204721.07 0 1 1 409442.13 0a 204721.07 204721.07 0 1 1 -409442.13 0"/>
<path id="N" d="M 8899996.34 17399993.24 m -303787.51 0 a 303787.51 303787.51 0 1 1 607575.03 0a 303787.51 303787.51 0 1 1 -607575.03 0M 8899999.24 17399999.93 m -204721.07 0 a 204721.07 204721.07 0 1 1 409442.13 0a 204721.07 204721.07 0 1 1 -409442.13 0"/>
<path id="N" d="M 8899996.34 22399993.24 m -303787.51 0 a 303787.51 303787.51 0 1 1 607575.03 0a 303787.51 303787.51 0 1 1 -607575.03 0M 8899999.24 22399999.93 m -204721.07 0 a 204721.07 204721.07 0 1 1 409442.13 0a 204721.07 204721.07 0 1 1 -409442.13 0"/>
<path id="N" d="M 2899996.34 21399993.24 m -303787.51 0 a 303787.51 303787.51 0 1 1 607575.03 0a 303787.51 303787.51 0 1 1 -607575.03 0M 2899999.24 21399999.93 m -204721.07 0 a 204721.07 204721.07 0 1 1 409442.13 0a 204721.07 204721.07 0 1 1 -409442.13 0"/>
<path id="N" d="M 8899996.34 21399993.24 m -303787.51 0 a 303787.51 303787.51 0 1 1 607575.03 0a 303787.51 303787.51 0 1 1 -607575.03 0M 8899999.24 21399999.93 m -204721.07 0 a 204721.07 204721.07 0 1 1 409442.13 0a 204721.07 204721.07 0 1 1 -409442.13 0"/>
<path id="N" d="M 2899996.34 23399993.24 m -303787.51 0 a 303787.51 303787.51 0 1 1 607575.03 0a 303787.51 303787.51 0 1 1 -607575.03 0M 2899999.24 23399999.93 m -204721.07 0 a 204721.07 204721.07 0 1 1 409442.13 0a 204721.07 204721.07 0 1 1 -409442.13 0"/>
<path id="N" d="M 8899996.34 20399993.24 m -303787.51 0 a 303787.51 303787.51 0 1 1 607575.03 0a 303787.51 303787.51 0 1 1 -607575.03 0M 8899999.24 20399999.93 m -204721.07 0 a 204721.07 204721.07 0 1 1 409442.13 0a 204721.07 204721.07 0 1 1 -409442.13 0"/>
<path id="N" d="M 8899996.34 28399993.24 m -303787.51 0 a 303787.51 303787.51 0 1 1 607575.03 0a 303787.51 303787.51 0 1 1 -607575.03 0M 8899999.24 28399999.93 m -204721.07 0 a 204721.07 204721.07 0 1 1 409442.13 0a 204721.07 204721.07 0 1 1 -409442.13 0"/>
<path id="N" d="M 2899996.34 19399993.24 m -303787.51 0 a 303787.51 303787.51 0 1 1 607575.03 0a 303787.51 303787.51 0 1 1 -607575.03 0M 2899999.24 19399999.93 m -204721.07 0 a 204721.07 204721.07 0 1 1 409442.13 0a 204721.07 204721.07 0 1 1 -409442.13 0"/>
<path id="N" d="M 2899996.34 29399993.24 m -303787.51 0 a 303787.51 303787.51 0 1 1 607575.03 0a 303787.51 303787.51 0 1 1 -607575.03 0M 2899999.24 29399999.93 m -204721.07 0 a 204721.07 204721.07 0 1 1 409442.13 0a 204721.07 204721.07 0 1 1 -409442.13 0"/>
<path id="N" d="M 8899996.34 27399993.24 m -303787.51 0 a 303787.51 303787.51 0 1 1 607575.03 0a 303787.51 303787.51 0 1 1 -607575.03 0M 8899999.24 27399999.93 m -204721.07 0 a 204721.07 204721.07 0 1 1 409442.13 0a 204721.07 204721.07 0 1 1 -409442.13 0"/>
<path id="N" d="M 8899996.34 19399993.24 m -303787.51 0 a 303787.51 303787.51 0 1 1 607575.03 0a 303787.51 303787.51 0 1 1 -607575.03 0M 8899999.24 19399999.93 m -204721.07 0 a 204721.07 204721.07 0 1 1 409442.13 0a 204721.07 204721.07 0 1 1 -409442.13 0"/>
<path id="N" d="M 2899996.34 17399993.24 m -303787.51 0 a 303787.51 303787.51 0 1 1 607575.03 0a 303787.51 303787.51 0 1 1 -607575.03 0M 2899999.24 17399999.93 m -204721.07 0 a 204721.07 204721.07 0 1 1 409442.13 0a 204721.07 204721.07 0 1 1 -409442.13 0"/>
<path id="N" d="M 2899996.34 20399993.24 m -303787.51 0 a 303787.51 303787.51 0 1 1 607575.03 0a 303787.51 303787.51 0 1 1 -607575.03 0M 2899999.24 20399999.93 m -204721.07 0 a 204721.07 204721.07 0 1 1 409442.13 0a 204721.07 204721.07 0 1 1 -409442.13 0"/>
<path id="N" d="M 9201181.00 31098819.00 L 8598819.00 31098819.00 L 8598819.00 31701181.00 L 9201181.00 31701181.00 L 9201181.00 31098819.00  zM 8899999.24 31399999.93 m -204721.07 0 a 204721.07 204721.07 0 1 1 409442.13 0a 204721.07 204721.07 0 1 1 -409442.13 0"/>
<path id="N" d="M 3201181.00 31098819.00 L 2598819.00 31098819.00 L 2598819.00 31701181.00 L 3201181.00 31701181.00 L 3201181.00 31098819.00  zM 2899999.24 31399999.93 m -204721.07 0 a 204721.07 204721.07 0 1 1 409442.13 0a 204721.07 204721.07 0 1 1 -409442.13 0"/>
<path id="N" d="M 8899996.34 23399993.24 m -303787.51 0 a 303787.51 303787.51 0 1 1 607575.03 0a 303787.51 303787.51 0 1 1 -607575.03 0M 8899999.24 23399999.93 m -204721.07 0 a 204721.07 204721.07 0 1 1 409442.13 0a 204721.07 204721.07 0 1 1 -409442.13 0"/>
<path id="N" d="M 12175197.00 7224803.00 L 11624803.00 7224803.00 L 11624803.00 7775197.00 L 12175197.00 7775197.00 L 12175197.00 7224803.00  zM 11899999.60 7499999.89 m -178629.11 0 a 178629.11 178629.11 0 1 1 357258.23 0a 178629.11 178629.11 0 1 1 -357258.23 0"/>
<path id="N" d="M 8899996.34 18399993.24 m -303787.51 0 a 303787.51 303787.51 0 1 1 607575.03 0a 303787.51 303787.51 0 1 1 -607575.03 0M 8899999.24 18399999.93 m -204721.07 0 a 204721.07 204721.07 0 1 1 409442.13 0a 204721.07 204721.07 0 1 1 -409442.13 0"/>
<path id="N" d="M 13900001.79 15500002.99 m -593404.85 0 a 593404.85 593404.85 0 1 1 1186809.70 0a 593404.85 593404.85 0 1 1 -1186809.70 0M 13900000.71 15499997.07 m -397100.93 0 a 397100.93 397100.93 0 1 1 794201.86 0a 397100.93 397100.93 0 1 1 -794201.86 0"/>
<path id="N" d="M 13900001.79 5500002.99 m -593404.85 0 a 593404.85 593404.85 0 1 1 1186809.70 0a 593404.85 593404.85 0 1 1 -1186809.70 0M 13900000.71 5499997.07 m -397100.93 0 a 397100.93 397100.93 0 1 1 794201.86 0a 397100.93 397100.93 0 1 1 -794201.86 0"/>
<path id="N" d="M 13900001.79 9500002.99 m -593404.85 0 a 593404.85 593404.85 0 1 1 1186809.70 0a 593404.85 593404.85 0 1 1 -1186809.70 0M 13900000.71 9499997.07 m -397100.93 0 a 397100.93 397100.93 0 1 1 794201.86 0a 397100.93 397100.93 0 1 1 -794201.86 0"/>
<path id="N" d="M 13900001.79 19500002.99 m -593404.85 0 a 593404.85 593404.85 0 1 1 1186809.70 0a 593404.85 593404.85 0 1 1 -1186809.70 0M 13900000.71 19499997.07 m -397100.93 0 a 397100.93 397100.93 0 1 1 794201.86 0a 397100.93 397100.93 0 1 1 -794201.86 0"/>
<path id="N" d="M 13900001.79 25500002.99 m -593404.85 0 a 593404.85 593404.85 0 1 1 1186809.70 0a 593404.85 593404.85 0 1 1 -1186809.70 0M 13900000.71 25499997.07 m -397100.93 0 a 397100.93 397100.93 0 1 1 794201.86 0a 397100.93 397100.93 0 1 1 -794201.86 0"/>
<path id="N" d="M 13900001.79 29500002.99 m -593404.85 0 a 593404.85 593404.85 0 1 1 1186809.70 0a 593404.85 593404.85 0 1 1 -1186809.70 0M 13900000.71 29499997.07 m -397100.93 0 a 397100.93 397100.93 0 1 1 794201.86 0a 397100.93 397100.93 0 1 1 -794201.86 0"/>
<path id="N" d="M 11899994.72 18499991.30 m -277581.82 0 a 277581.82 277581.82 0 1 1 555163.65 0a 277581.82 277581.82 0 1 1 -555163.65 0M 11899999.60 18499999.89 m -178629.11 0 a 178629.11 178629.11 0 1 1 357258.23 0a 178629.11 178629.11 0 1 1 -357258.23 0"/>
<path id="N" d="M 2899996.34 28399993.24 m -303787.51 0 a 303787.51 303787.51 0 1 1 607575.03 0a 303787.51 303787.51 0 1 1 -607575.03 0M 2899999.24 28399999.93 m -204721.07 0 a 204721.07 204721.07 0 1 1 409442.13 0a 204721.07 204721.07 0 1 1 -409442.13 0"/>
<path id="N" d="M 8899996.34 30399993.24 m -303787.51 0 a 303787.51 303787.51 0 1 1 607575.03 0a 303787.51 303787.51 0 1 1 -607575.03 0M 8899999.24 30399999.93 m -204721.07 0 a 204721.07 204721.07 0 1 1 409442.13 0a 204721.07 204721.07 0 1 1 -409442.13 0"/>
<path id="N" d="M 11899994.72 28499991.30 m -277581.82 0 a 277581.82 277581.82 0 1 1 555163.65 0a 277581.82 277581.82 0 1 1 -555163.65 0M 11899999.60 28499999.89 m -178629.11 0 a 178629.11 178629.11 0 1 1 357258.23 0a 178629.11 178629.11 0 1 1 -357258.23 0"/>
<path id="N" d="M 11899994.72 8499991.30 m -277581.82 0 a 277581.82 277581.82 0 1 1 555163.65 0a 277581.82 277581.82 0 1 1 -555163.65 0M 11899999.60 8499999.89 m -178629.11 0 a 178629.11 178629.11 0 1 1 357258.23 0a 178629.11 178629.11 0 1 1 -357258.23 0"/>
</g>
</svg>
