<svg width="44.45mm" height="88.646mm" viewBox="0 0 17500000 34900000"  version="1.1" xmlns="http://www.w3.org/2000/svg" xmlns:xlink="http://www.w3.org/1999/xlink">
<desc>
Origin 0 0 Bound 0 0 17500000 34900000
</desc>
<g fill-rule="evenodd" fill="rgb(255, 0, 255)" stroke="black" stroke-width="1" transform="translate(0, 34900000) scale(1, -1) translate(0, 0)">
<path id="N" d="M 17500000.00 0.00 L 0.00 0.00 L 0.00 34900000.00 L 17500000.00 34900000.00 L 17500000.00 0.00  zM 1249998.45 1250006.40 m -645602.60 0 a 645602.60 645602.60 0 1 1 1291205.19 0a 645602.60 645602.60 0 1 1 -1291205.19 0M 12215197.00 7815197.00 L 11584803.00 7815197.00 L 11584803.00 7184803.00 L 12215197.00 7184803.00 L 12215197.00 7815197.00  zM 11900000.90 8499999.78 m -317917.22 0 a 317917.22 317917.22 0 1 1 635834.44 0a 317917.22 317917.22 0 1 1 -635834.44 0M 16249998.45 1250006.40 m -645602.60 0 a 645602.60 645602.60 0 1 1 1291205.19 0a 645602.60 645602.60 0 1 1 -1291205.19 0M 13899994.62 5500026.02 m -633575.98 0 a 633575.98 633575.98 0 1 1 1267151.97 0a 633575.98 633575.98 0 1 1 -1267151.97 0M 13899994.62 9500026.02 m -633575.98 0 a 633575.98 633575.98 0 1 1 1267151.97 0a 633575.98 633575.98 0 1 1 -1267151.97 0M 2850001.39 17849996.65 m -344128.35 0 a 344128.35 344128.35 0 1 1 688256.71 0a 344128.35 344128.35 0 1 1 -688256.71 0M 2850001.39 18849996.65 m -344128.35 0 a 344128.35 344128.35 0 1 1 688256.71 0a 344128.35 344128.35 0 1 1 -688256.71 0M 8850001.39 17849996.65 m -344128.35 0 a 344128.35 344128.35 0 1 1 688256.71 0a 344128.35 344128.35 0 1 1 -688256.71 0M 12215197.00 17815197.00 L 11584803.00 17815197.00 L 11584803.00 17184803.00 L 12215197.00 17184803.00 L 12215197.00 17815197.00  zM 13899994.62 15500026.02 m -633575.98 0 a 633575.98 633575.98 0 1 1 1267151.97 0a 633575.98 633575.98 0 1 1 -1267151.97 0M 11900000.90 18499999.78 m -317917.22 0 a 317917.22 317917.22 0 1 1 635834.44 0a 317917.22 317917.22 0 1 1 -635834.44 0M 2850001.39 20849996.65 m -344128.35 0 a 344128.35 344128.35 0 1 1 688256.71 0a 344128.35 344128.35 0 1 1 -688256.71 0M 2850001.39 21849996.65 m -344128.35 0 a 344128.35 344128.35 0 1 1 688256.71 0a 344128.35 344128.35 0 1 1 -688256.71 0M 2850001.39 22849996.65 m -344128.35 0 a 344128.35 344128.35 0 1 1 688256.71 0a 344128.35 344128.35 0 1 1 -688256.71 0M 2850001.39 19849996.65 m -344128.35 0 a 344128.35 344128.35 0 1 1 688256.71 0a 344128.35 344128.35 0 1 1 -688256.71 0M 8850001.39 19849996.65 m -344128.35 0 a 344128.35 344128.35 0 1 1 688256.71 0a 344128.35 344128.35 0 1 1 -688256.71 0M 8850001.39 20849996.65 m -344128.35 0 a 344128.35 344128.35 0 1 1 688256.71 0a 344128.35 344128.35 0 1 1 -688256.71 0M 8850001.39 18849996.65 m -344128.35 0 a 344128.35 344128.35 0 1 1 688256.71 0a 344128.35 344128.35 0 1 1 -688256.71 0M 8850001.39 21849996.65 m -344128.35 0 a 344128.35 344128.35 0 1 1 688256.71 0a 344128.35 344128.35 0 1 1 -688256.71 0M 8850001.39 22849996.65 m -344128.35 0 a 344128.35 344128.35 0 1 1 688256.71 0a 344128.35 344128.35 0 1 1 -688256.71 0M 8850001.39 23849996.65 m -344128.35 0 a 344128.35 344128.35 0 1 1 688256.71 0a 344128.35 344128.35 0 1 1 -688256.71 0M 13899994.62 19500026.02 m -633575.98 0 a 633575.98 633575.98 0 1 1 1267151.97 0a 633575.98 633575.98 0 1 1 -1267151.97 0M 2850001.39 23849996.65 m -344128.35 0 a 344128.35 344128.35 0 1 1 688256.71 0a 344128.35 344128.35 0 1 1 -688256.71 0M 2850001.39 24849996.65 m -344128.35 0 a 344128.35 344128.35 0 1 1 688256.71 0a 344128.35 344128.35 0 1 1 -688256.71 0M 2850001.39 25849996.65 m -344128.35 0 a 344128.35 344128.35 0 1 1 688256.71 0a 344128.35 344128.35 0 1 1 -688256.71 0M 2850001.39 26849996.65 m -344128.35 0 a 344128.35 344128.35 0 1 1 688256.71 0a 344128.35 344128.35 0 1 1 -688256.71 0M 2850001.39 27849996.65 m -344128.35 0 a 344128.35 344128.35 0 1 1 688256.71 0a 344128.35 344128.35 0 1 1 -688256.71 0M 2850001.39 28849996.65 m -344128.35 0 a 344128.35 344128.35 0 1 1 688256.71 0a 344128.35 344128.35 0 1 1 -688256.71 0M 2850001.39 29849996.65 m -344128.35 0 a 344128.35 344128.35 0 1 1 688256.71 0a 344128.35 344128.35 0 1 1 -688256.71 0M 2850001.39 30849996.65 m -344128.35 0 a 344128.35 344128.35 0 1 1 688256.71 0a 344128.35 344128.35 0 1 1 -688256.71 0M 1249998.45 33750006.40 m -645602.60 0 a 645602.60 645602.60 0 1 1 1291205.19 0a 645602.60 645602.60 0 1 1 -1291205.19 0M 3191181.00 32191181.00 L 2508819.00 32191181.00 L 2508819.00 31508819.00 L 3191181.00 31508819.00 L 3191181.00 32191181.00  zM 8850001.39 28849996.65 m -344128.35 0 a 344128.35 344128.35 0 1 1 688256.71 0a 344128.35 344128.35 0 1 1 -688256.71 0M 8850001.39 29849996.65 m -344128.35 0 a 344128.35 344128.35 0 1 1 688256.71 0a 344128.35 344128.35 0 1 1 -688256.71 0M 8850001.39 24849996.65 m -344128.35 0 a 344128.35 344128.35 0 1 1 688256.71 0a 344128.35 344128.35 0 1 1 -688256.71 0M 8850001.39 25849996.65 m -344128.35 0 a 344128.35 344128.35 0 1 1 688256.71 0a 344128.35 344128.35 0 1 1 -688256.71 0M 8850001.39 26849996.65 m -344128.35 0 a 344128.35 344128.35 0 1 1 688256.71 0a 344128.35 344128.35 0 1 1 -688256.71 0M 8850001.39 27849996.65 m -344128.35 0 a 344128.35 344128.35 0 1 1 688256.71 0a 344128.35 344128.35 0 1 1 -688256.71 0M 12215197.00 27815197.00 L 11584803.00 27815197.00 L 11584803.00 27184803.00 L 12215197.00 27184803.00 L 12215197.00 27815197.00  zM 13899994.62 25500026.02 m -633575.98 0 a 633575.98 633575.98 0 1 1 1267151.97 0a 633575.98 633575.98 0 1 1 -1267151.97 0M 8850001.39 30849996.65 m -344128.35 0 a 344128.35 344128.35 0 1 1 688256.71 0a 344128.35 344128.35 0 1 1 -688256.71 0M 11900000.90 28499999.78 m -317917.22 0 a 317917.22 317917.22 0 1 1 635834.44 0a 317917.22 317917.22 0 1 1 -635834.44 0M 9191181.00 32191181.00 L 8508819.00 32191181.00 L 8508819.00 31508819.00 L 9191181.00 31508819.00 L 9191181.00 32191181.00  zM 13899994.62 29500026.02 m -633575.98 0 a 633575.98 633575.98 0 1 1 1267151.97 0a 633575.98 633575.98 0 1 1 -1267151.97 0M 16249998.45 33750006.40 m -645602.60 0 a 645602.60 645602.60 0 1 1 1291205.19 0a 645602.60 645602.60 0 1 1 -1291205.19 0"/>
</g>
</svg>
