<svg width="53.975mm" height="107.95mm" viewBox="0 0 21250000 42500000"  version="1.1" xmlns="http://www.w3.org/2000/svg" xmlns:xlink="http://www.w3.org/1999/xlink">
<desc>
Origin 0 0 Bound 0 0 21250000 42500000
</desc>
<g fill-rule="evenodd" fill="rgb(255, 255, 0)" stroke="black" stroke-width="1" transform="translate(0, 42500000) scale(1, -1) translate(0, 0)">
<path id="N" d="M 14911449.00 26786457.00 L 14936441.00 26761465.00 L 14941196.00 26749981.59 L 14941197.00 26724992.00 L 14936441.00 26713511.00 L 14922930.00 26700000.00 L 14936441.00 26686489.00 L 14941196.00 26675005.59 L 14941197.00 26650016.00 L 14936441.00 26638535.00 L 14911449.00 26613543.00 L 14899965.59 26608788.00 L 14849984.00 26608787.00 L 14838503.00 26613543.00 L 14813511.00 26638535.00 L 14808755.00 26650016.00 L 14813511.00 26661497.00 L 14824992.00 26666253.00 L 14836473.00 26661497.00 L 14856710.00 26641260.00 L 14893242.00 26641260.00 L 14908724.00 26656742.00 L 14908724.00 26668282.00 L 14893242.00 26683764.00 L 14874976.00 26683764.00 L 14863495.00 26688519.00 L 14858740.00 26700000.00 L 14863495.00 26711481.00 L 14874976.00 26716236.00 L 14893242.00 26716236.00 L 14908724.00 26731718.00 L 14908724.00 26743258.00 L 14893242.00 26758740.00 L 14856710.00 26758740.00 L 14836473.00 26738503.00 L 14824992.00 26733747.00 L 14813511.00 26738503.00 L 14808755.00 26749984.00 L 14813511.00 26761465.00 L 14838503.00 26786457.00 L 14849986.41 26791212.00 L 14899968.00 26791213.00 L 14911449.00 26786457.00  z"/>
<path id="N" d="M 14961449.00 16686457.00 L 14986441.00 16661465.00 L 14991196.00 16649981.59 L 14991197.00 16624992.00 L 14986441.00 16613511.00 L 14914190.00 16541260.00 L 14974960.00 16541260.00 L 14986441.00 16536505.00 L 14991196.00 16525024.00 L 14986441.00 16513543.00 L 14974960.00 16508788.00 L 14874992.00 16508787.00 L 14863511.00 16513543.00 L 14858755.00 16525024.00 L 14863511.00 16536505.00 L 14958724.00 16631718.00 L 14958724.00 16643258.00 L 14943242.00 16658740.00 L 14906710.00 16658740.00 L 14886473.00 16638503.00 L 14874992.00 16633747.00 L 14863511.00 16638503.00 L 14858755.00 16649984.00 L 14863511.00 16661465.00 L 14888503.00 16686457.00 L 14899986.41 16691212.00 L 14949968.00 16691213.00 L 14961449.00 16686457.00  z"/>
<path id="N" d="M 369102.00 37619150.00 L 419086.00 37569166.00 L 427012.00 37550032.00 L 427012.00 37450064.00 L 419086.00 37430929.00 L 369102.00 37380946.00 L 349968.00 37373021.00 L 299984.00 37373021.00 L 280850.00 37380947.00 L 127109.00 37534688.00 L 127109.00 37400081.00 L 119183.00 37380947.00 L 100049.00 37373021.00 L 80915.00 37380947.00 L 72989.00 37400081.00 L 72989.00 37600016.00 L 80915.00 37619150.00 L 100049.00 37627076.00 L 119183.00 37619150.00 L 311192.00 37427141.00 L 338759.32 37427141.00 L 372892.00 37461272.32 L 372892.00 37538824.00 L 330834.00 37580882.00 L 322908.00 37600016.00 L 330834.00 37619150.00 L 349968.00 37627076.00 L 369102.00 37619150.00  z"/>
<path id="N" d="M 21209685.00 10422677.00 L 21217611.00 10403543.00 L 21217611.00 4596457.00 L 21209685.00 4577323.00 L 21190551.00 4569397.00 L 15308661.00 4569397.00 L 15289527.00 4577323.00 L 15281601.00 4596457.00 L 15281601.00 7066929.00 L 15289527.00 7086063.00 L 15308661.00 7093989.00 L 15327795.00 7086063.00 L 15335721.00 7066929.00 L 15335721.00 4623517.00 L 21163491.00 4623517.00 L 21163491.00 10376483.00 L 15335721.00 10376483.00 L 15335721.00 8901575.00 L 15327795.00 8882441.00 L 15308661.00 8874515.00 L 15289527.00 8882441.00 L 15281601.00 8901575.00 L 15281601.00 10403543.00 L 15289527.00 10422677.00 L 15308661.00 10430603.00 L 21190551.00 10430603.00 L 21209685.00 10422677.00  z"/>
<path id="N" d="M 21209685.00 20422677.00 L 21217611.00 20403543.00 L 21217611.00 14596457.00 L 21209685.00 14577323.00 L 21190551.00 14569397.00 L 15308661.00 14569397.00 L 15289527.00 14577323.00 L 15281601.00 14596457.00 L 15281601.00 17066929.00 L 15289527.00 17086063.00 L 15308661.00 17093989.00 L 15327795.00 17086063.00 L 15335721.00 17066929.00 L 15335721.00 14623517.00 L 21163491.00 14623517.00 L 21163491.00 20376483.00 L 15335721.00 20376483.00 L 15335721.00 18901575.00 L 15327795.00 18882441.00 L 15308661.00 18874515.00 L 15289527.00 18882441.00 L 15281601.00 18901575.00 L 15281601.00 20403543.00 L 15289527.00 20422677.00 L 15308661.00 20430603.00 L 21190551.00 20430603.00 L 21209685.00 20422677.00  z"/>
<path id="N" d="M 21209685.00 30422677.00 L 21217611.00 30403543.00 L 21217611.00 24596457.00 L 21209685.00 24577323.00 L 21190551.00 24569397.00 L 15308661.00 24569397.00 L 15289527.00 24577323.00 L 15281601.00 24596457.00 L 15281601.00 27066929.00 L 15289527.00 27086063.00 L 15308661.00 27093989.00 L 15327795.00 27086063.00 L 15335721.00 27066929.00 L 15335721.00 24623517.00 L 21163491.00 24623517.00 L 21163491.00 30376483.00 L 15335721.00 30376483.00 L 15335721.00 28901575.00 L 15327795.00 28882441.00 L 15308661.00 28874515.00 L 15289527.00 28882441.00 L 15281601.00 28901575.00 L 15281601.00 30403543.00 L 15289527.00 30422677.00 L 15308661.00 30430603.00 L 21190551.00 30430603.00 L 21209685.00 30422677.00  z"/>
<path id="N" d="M 14836489.00 16686457.00 L 14841244.00 16674976.00 L 14836489.00 16663495.00 L 14825008.00 16658740.00 L 14816252.00 16658740.00 L 14816253.00 16550016.00 L 14811497.00 16538535.00 L 14786505.00 16513543.00 L 14775021.59 16508788.00 L 14750032.00 16508787.00 L 14738551.00 16513543.00 L 14713559.00 16538535.00 L 14708803.00 16550016.00 L 14713559.00 16561497.00 L 14725040.00 16566253.00 L 14736521.00 16561497.00 L 14756758.00 16541260.00 L 14768298.00 16541260.00 L 14783780.00 16556742.00 L 14783780.00 16658740.00 L 14775024.00 16658740.00 L 14763543.00 16663495.00 L 14758788.00 16674976.00 L 14763543.00 16686457.00 L 14775024.00 16691212.00 L 14825008.00 16691212.00 L 14836489.00 16686457.00  z"/>
<path id="N" d="M 14911481.00 6936457.00 L 14916236.00 6924976.00 L 14911481.00 6913495.00 L 14900000.00 6908740.00 L 14891244.00 6908740.00 L 14891245.00 6800016.00 L 14886489.00 6788535.00 L 14861497.00 6763543.00 L 14850013.59 6758788.00 L 14825024.00 6758787.00 L 14813543.00 6763543.00 L 14788551.00 6788535.00 L 14783795.00 6800016.00 L 14788551.00 6811497.00 L 14800032.00 6816253.00 L 14811513.00 6811497.00 L 14831750.00 6791260.00 L 14843290.00 6791260.00 L 14858772.00 6806742.00 L 14858772.00 6908740.00 L 14850016.00 6908740.00 L 14838535.00 6913495.00 L 14833780.00 6924976.00 L 14838535.00 6936457.00 L 14850016.00 6941212.00 L 14900000.00 6941212.00 L 14911481.00 6936457.00  z"/>
<path id="N" d="M 14786489.00 26786457.00 L 14791244.00 26774976.00 L 14786489.00 26763495.00 L 14775008.00 26758740.00 L 14766252.00 26758740.00 L 14766253.00 26650016.00 L 14761497.00 26638535.00 L 14736505.00 26613543.00 L 14725021.59 26608788.00 L 14700032.00 26608787.00 L 14688551.00 26613543.00 L 14663559.00 26638535.00 L 14658803.00 26650016.00 L 14663559.00 26661497.00 L 14675040.00 26666253.00 L 14686521.00 26661497.00 L 14706758.00 26641260.00 L 14718298.00 26641260.00 L 14733780.00 26656742.00 L 14733780.00 26758740.00 L 14725024.00 26758740.00 L 14713543.00 26763495.00 L 14708788.00 26774976.00 L 14713543.00 26786457.00 L 14725024.00 26791212.00 L 14775008.00 26791212.00 L 14786489.00 26786457.00  z"/>
<path id="N" d="M 419086.00 37919053.00 L 427012.00 37899919.00 L 419086.00 37880785.00 L 399952.00 37872859.00 L 161241.00 37872859.00 L 127109.00 37838727.00 L 127109.00 37761176.16 L 161241.84 37727044.00 L 399952.00 37727044.00 L 419086.00 37719118.00 L 427012.00 37699984.00 L 419086.00 37680850.00 L 399952.00 37672924.00 L 150033.00 37672924.00 L 130899.00 37680850.00 L 80915.00 37730832.00 L 72989.00 37749967.00 L 72989.00 37849935.00 L 80915.00 37869069.00 L 130899.00 37919053.00 L 150033.00 37926979.00 L 399952.00 37926979.00 L 419086.00 37919053.00  z"/>
<path id="N" d="M 14986457.00 6936457.00 L 14991212.00 6924973.59 L 14991212.00 6791260.00 L 14999968.00 6791260.00 L 15011449.00 6786505.00 L 15016204.00 6775024.00 L 15011449.00 6763543.00 L 14999968.00 6758788.00 L 14949984.00 6758788.00 L 14938503.00 6763543.00 L 14933748.00 6775024.00 L 14938503.00 6786505.00 L 14949984.00 6791260.00 L 14958740.00 6791260.00 L 14958740.00 6887374.17 L 14949984.00 6883747.00 L 14938503.00 6888503.00 L 14933747.00 6899984.00 L 14938503.00 6911465.00 L 14963495.00 6936457.00 L 14974976.00 6941213.00 L 14986457.00 6936457.00  z"/>
<path id="N" d="M 21169134.00 41168740.00 L 21177060.00 41149606.00 L 21177060.00 33850394.00 L 21169134.00 33831260.00 L 21150000.00 33823334.00 L 1100000.00 33823334.00 L 1080866.00 33831260.00 L 1072940.00 33850394.00 L 1072940.00 41149606.00 L 1080866.00 41168740.00 L 1100000.00 41176666.00 L 21150000.00 41176666.00 L 21169134.00 41168740.00  zM 21122940.00 41122546.00 L 1127060.00 41122546.00 L 1127060.00 33877454.00 L 21122940.00 33877454.00 L 21122940.00 41122546.00  z"/>
<path id="N" d="M 15040947.92 7500002.92 m -80279.37 0 a 80279.37 80279.37 0 1 1 160558.73 0a 80279.37 80279.37 0 1 1 -160558.73 0"/>
<path id="N" d="M 15040947.92 17500002.92 m -80279.37 0 a 80279.37 80279.37 0 1 1 160558.73 0a 80279.37 80279.37 0 1 1 -160558.73 0"/>
<path id="N" d="M 17700001.28 41500001.28 m -160563.76 0 a 160563.76 160563.76 0 1 1 321127.52 0a 160563.76 160563.76 0 1 1 -321127.52 0"/>
<path id="N" d="M 15040947.92 27500002.92 m -80279.37 0 a 80279.37 80279.37 0 1 1 160558.73 0a 80279.37 80279.37 0 1 1 -160558.73 0"/>
</g>
</svg>
